<svg width="240" height="234" viewBox="0 0 240 234" fill="none" xmlns="http://www.w3.org/2000/svg">
<path d="M42.5 0H197.5C221 0 240 19 240 42.5V191.5C240 215 221 234 197.5 234H42.5C19 234 0 215 0 191.5V42.5C0 19 19 0 42.5 0Z" fill="#E37C00"/>
<path d="M126.2 61.5L96.2 111L128.2 163.5C128.4 163.9 128.5 164.3 128.4 164.7C128.3 165.1 127.9 164.8 127.3 164.9H104.4C102.8 164.9 101.7 164.8 101 163.8C98.9 159.6 96.7 155.5 94.6 151.3C92.5 147.2 90.2001 143 87.8 138.7C85.4 134.4 83 130.1 80.6 125.7H80.4C78.3 130 76 134.3 73.7 138.6C71.4 142.9 69.1 147.2 66.9 151.4C64.6 155.6 62.3 159.9 60 164C59.6 165 58.8 165.1 57.7 165.1H35.7C35.3 165.1 35 165.3 35 164.8C34.9 164.4 35 164 35.2 163.7L66.3 112.7L36 61.4C35.7 61 35.6 60.6 35.8 60.4C36 60.1 36.4 60 36.8 60H59.5C60 60 60.5 60.1 60.9 60.2C61.3 60.4 61.6 60.7 61.9 61.1C63.8 65.4 66 69.7 68.3 74C70.7001 78.3 73 82.5 75.5 86.7C77.9 90.9 80.1 95.1 82.2 99.4H82.4C84.5 95 86.7 90.7 88.9 86.5C91.1 82.3 93.4 78.1 95.7 73.9C98 69.7 100.2 65.4 102.4 61.3C102.5 60.9 102.7 60.5 103 60.3C103.4 60.1 103.8 60 104.3 60.1H125.4C125.9 60 126.4 60.3 126.5 60.8C126.6 60.9 126.4 61.3 126.2 61.5Z" fill="white"/>
<path d="M172.4 167C165 167.1 157.6 165.6 150.9 162.5C144.6 159.6 139.4 154.8 135.8 148.9C132.1 142.8 130.3 135.2 130.3 126.1C130.2 118.7 132.1 111.4 135.8 105C139.6 98.5 145.1 93.1 151.7 89.5C158.7 85.6 167.1 83.7 177 83.7C177.5 83.7 178.2 83.7 179.1 83.8C180 83.9 181 83.9 182.2 84V52.4C182.2 51.7 182.5 51.3 183.2 51.3H203.5C204 51.2 204.4 51.6 204.5 52C204.5 52.1 204.5 52.2 204.5 52.2V147.4C204.5 149.2 204.6 151.2 204.7 153.4C204.9 155.5 205 157.5 205.1 159.2C205.1 159.9 204.8 160.5 204.1 160.8C198.9 163 193.4 164.6 187.8 165.6C182.7 166.5 177.6 167 172.4 167ZM182.2 147V103C181.3 102.8 180.4 102.6 179.5 102.5C178.4 102.4 177.3 102.3 176.2 102.3C172.3 102.3 168.4 103.1 164.9 104.9C161.5 106.6 158.6 109.1 156.4 112.3C154.2 115.5 153.1 119.8 153.1 125C153 128.5 153.6 132 154.8 135.3C155.8 138 157.3 140.4 159.3 142.4C161.2 144.2 163.5 145.6 166.1 146.4C168.8 147.3 171.6 147.7 174.4 147.7C175.9 147.7 177.3 147.6 178.6 147.5C179.9 147.6 181 147.4 182.2 147Z" fill="white"/>
</svg>
