<?xml version="1.0" encoding="UTF-8"?><svg id="Laag_2" xmlns="http://www.w3.org/2000/svg" viewBox="0 0 128.97 177.98"><defs><style>.cls-1{fill:#23695d;}</style></defs><g id="Laag_2-2"><g id="OBJECTS"><path class="cls-1" d="M77.04,92.39c7.52,0,15.06-.44,22.49,1.24,5.99,1.35,11.53,3.59,16.27,7.64,7.26,6.2,7.11,13.73-.47,19.57-3.98,3.07-8.58,4.51-13.48,4.77-5.46,.3-10.94,.12-16.41,.22-4.1,.08-8.2,.13-12.28,.47-1.59,.13-3.22,.84-4.65,1.62-1.85,1.01-1.97,2.42-.26,3.7,1.29,.96,2.85,1.73,4.41,2.13,4.28,1.09,8.64,.73,12.97,.21,8.33-1,16.64-1.69,24.87,.73,5.44,1.6,10.35,4.04,14.22,8.33,4.49,4.98,5.51,11.23,2.64,17.27-3.61,7.62-9.83,12.19-17.62,14.92-7.09,2.48-14.4,3.1-21.83,2.62-9.81-.63-19.34-2.59-28.5-6.26-10.21-4.09-18.78-10.46-26.41-18.32-11.35-11.69-18.74-25.62-23.76-40.95-3.58-10.92-6.66-21.97-8.11-33.4C.03,70.11-.62,61.28,.85,52.47c1.81-10.85,6.91-20.07,14.55-27.89C24.63,15.14,35.29,7.66,47.62,2.91c9.3-3.58,18.93-3.98,28.41-.49,8.86,3.25,11.5,10.46,7.11,18.83-2.59,4.94-6.57,8.58-11.28,11.45-2.04,1.25-4.11,2.45-6.22,3.58-1.18,.64-1.98,1.48-1.92,2.84,.06,1.4,.23,2.8,.49,4.18,.07,.37,.61,.82,1.01,.93,2.48,.67,4.96,1.61,7.48,1.79,5.8,.42,11.63,.3,17.43,.7,6.99,.49,13.42,2.62,18.59,7.63,5.22,5.06,5.69,11.67,1.18,17.05-1.03,1.23-2.21,2.36-3.46,3.36-4.83,3.88-10.56,5.37-16.57,6.02-7.16,.78-14.24-.15-21.32-1.04-6.09-.77-12.19-1.15-18.2,.45-1.77,.47-3.52,1.21-5.11,2.12-2.35,1.34-2.58,3.42-.45,5.08,1.62,1.26,3.54,2.41,5.51,2.88,4.07,.97,8.23,1.74,12.4,2.04,4.76,.34,9.57,.08,14.36,.08h-.02Z"/></g></g></svg>