<?xml version="1.0" encoding="UTF-8"?><svg id="Laag_1" xmlns="http://www.w3.org/2000/svg" viewBox="0 0 234 234"><path d="M43.88,0C19.65,0,0,19.65,0,43.88V190.12c0,24.22,19.65,43.88,43.88,43.88H190.12c24.22,0,43.88-19.65,43.88-43.88V43.88c0-24.22-19.65-43.88-43.88-43.88H43.88Zm109.12,58.5c3.62,0,6.5,1.09,8.72,3.09,2.25,2.04,3.38,4.85,3.38,8.16s-1.09,5.94-3.38,7.88c-2.21,1.9-5.13,2.81-8.72,2.81s-6.43-1.09-8.44-3.09c-2.04-1.97-3.09-4.43-3.09-7.59s1.05-5.8,3.09-7.88c2-2.07,4.78-3.38,8.44-3.38Zm-59.34,.84h14.06c.49,0,.98,.35,1.12,.84l29.25,101.25c.14,.18,.28,.35,.28,.56,0,.63-.53,1.12-1.12,1.12h-19.12c-.53,0-.98-.35-1.12-.84l-5.91-22.22h-21.94l-5.91,22.22c-.14,.49-.32,.84-.84,.84h-18c-.35,0-.91-.28-1.12-.56-.21-.28-.11-.53,0-.84l29.25-101.53c.14-.49,.63-.84,1.12-.84Zm50.91,29.53h17.16c.63,0,1.12,.49,1.12,1.12v72c0,.63-.49,1.12-1.12,1.12h-17.16c-.63,0-1.12-.49-1.12-1.12V90c0-.63,.49-1.12,1.12-1.12Zm-44.16,1.69l-1.69,10.41-5.06,22.22h13.78l-5.63-22.22-1.41-10.41Z"/></svg>