<?xml version="1.0" encoding="utf-8"?>
<!-- Generator: Adobe Illustrator 26.4.1, SVG Export Plug-In . SVG Version: 6.00 Build 0)  -->
<svg version="1.1" id="Laag_2_00000109725891821045553460000013544135758438754238_"
	 xmlns="http://www.w3.org/2000/svg" xmlns:xlink="http://www.w3.org/1999/xlink" x="0px" y="0px" viewBox="0 0 800.4 201.2"
	 style="enable-background:new 0 0 800.4 201.2;" xml:space="preserve">
<style type="text/css">
	.st0{fill:#FFFFFF;}
</style>
<g id="Laag_1-2">
	<g>
		<path class="st0" d="M0,201.2V46.4h24.8l4.8,10.2c2.5-2,5.3-3.9,8.4-5.7s6.4-3.3,10-4.4s7.4-1.7,11.4-1.7c6.5,0,12.2,1.3,17.1,3.8
			c4.9,2.5,8.8,6.2,11.9,11s5.3,10.6,6.8,17.5c1.5,6.9,2.2,14.6,2.2,23.1c0,11.5-1.1,21.3-3.4,29.6c-2.3,8.3-6.2,14.6-11.7,18.9
			s-13.2,6.5-22.9,6.5c-5.1,0-10.2-0.6-15.5-1.8s-10-2.9-14.3-5.2v53H0z M49.8,130.8c3.1,0,6-0.8,8.8-2.5s5-4.7,6.7-9.1
			s2.5-10.7,2.5-19S67,85.9,65.5,81.3c-1.5-4.6-3.6-7.9-6.3-9.8c-2.7-1.9-5.8-2.9-9.4-2.9c-4.1,0-7.9,0.7-11.4,2s-6.4,2.7-8.8,4v51
			c2.7,1.6,5.8,2.9,9.4,3.8S46.2,130.8,49.8,130.8L49.8,130.8z"/>
		<path class="st0" d="M163,154.8c-8.8,0-16.3-0.9-22.6-2.7s-11.4-4.8-15.3-9.1c-3.9-4.3-6.8-9.9-8.6-17c-1.8-7.1-2.7-15.8-2.7-26.2
			c0-10.9,0.9-20,2.7-27.1c1.8-7.1,4.7-12.7,8.6-16.8c3.9-4.1,9.1-6.9,15.4-8.6c6.3-1.7,13.8-2.5,22.5-2.5s16.5,0.9,22.8,2.6
			s11.4,4.6,15.3,8.7c3.9,4.1,6.8,9.7,8.6,16.8s2.7,16.1,2.7,26.9s-0.9,19.6-2.6,26.7c-1.7,7.1-4.5,12.8-8.4,16.9
			c-3.9,4.1-9,7.1-15.3,8.8S172.1,154.8,163,154.8L163,154.8z M163,131.2c3.6,0,6.6-0.3,9.1-1s4.5-2,6-4.1s2.7-5.2,3.5-9.5
			s1.2-9.9,1.2-16.8s-0.4-12.7-1.2-16.9c-0.8-4.2-2-7.3-3.5-9.4s-3.5-3.4-6-4.1s-5.5-1-9.1-1s-6.4,0.3-8.9,1s-4.5,2-6.1,4.1
			s-2.8,5.2-3.5,9.4c-0.7,4.2-1.1,9.8-1.1,16.9s0.4,12.5,1.1,16.8c0.7,4.3,1.9,7.4,3.5,9.5c1.6,2.1,3.6,3.4,6.1,4.1
			C156.6,130.9,159.5,131.2,163,131.2L163,131.2z"/>
		<path class="st0" d="M232,153.8V46.4h22.8l6.8,16.4c3.9-4.9,8.2-9.1,13.1-12.6c4.9-3.5,10.6-5.2,17.3-5.2c1.5,0,3,0.1,4.5,0.2
			s3,0.4,4.3,0.8v30.4c-2-0.3-4.1-0.5-6.3-0.7c-2.2-0.2-4.3-0.3-6.3-0.3c-3.9,0-7.4,0.4-10.5,1.3s-6,2.1-8.6,3.8
			c-2.6,1.7-5.1,3.8-7.5,6.5v66.8L232,153.8L232,153.8z"/>
		<path class="st0" d="M359.4,153.8c-8.3,0-15-1.2-20.1-3.6c-5.1-2.4-8.8-6.4-11.1-12c-2.3-5.6-3.3-13.1-3-22.6l1-45.4h-16.8v-19
			l17.8-4.8l4-30h23.4v30h25.2v23.8h-25.2v45.2c0,2.9,0.3,5.3,0.8,7.2c0.5,1.9,1.3,3.4,2.3,4.5c1,1.1,2.2,2,3.5,2.5s2.7,0.9,4,1
			l13.6,1.2v22L359.4,153.8L359.4,153.8z"/>
		<path class="st0" d="M403.8,153.8V70.2h-15.2v-19l15.2-4.8v-7.2c0-9.1,1.2-16.5,3.7-22.3S413.8,6.8,419,4.1S431.1,0,439.6,0
			c4.7,0,8.9,0.3,12.7,1c3.8,0.7,7,1.3,9.5,2v21.2h-16.4c-3.1,0-5.5,0.5-7.2,1.4s-2.9,2.4-3.6,4.3s-1,4.5-1,7.7v8.8h27.2v23.8h-27.2
			v83.6L403.8,153.8L403.8,153.8z"/>
		<path class="st0" d="M623.6,154.2c-7.6,0-13.9-1.2-18.9-3.7s-8.7-6.3-11.1-11.4c-2.4-5.1-3.6-11.8-3.6-19.9V1.2h29.6v113.6
			c0,4,0.4,7.2,1.2,9.5s2,4,3.7,5.1s3.8,1.8,6.3,2.2l8.2,1.2v21.4H623.6z"/>
		<path class="st0" d="M656.2,30.6c-2.8,0-4.2-1.3-4.2-4V7c0-2.8,1.4-4.2,4.2-4.2H679c1.2,0,2.1,0.4,2.8,1.2s1,1.8,1,3v19.6
			c0,2.7-1.3,4-3.8,4H656.2z M652.6,153.8V46.4h29.6v107.4H652.6z"/>
		<path class="st0" d="M751,154.8c-8.8,0-16.3-0.9-22.6-2.7c-6.3-1.8-11.4-4.8-15.3-9.1s-6.8-9.9-8.6-17c-1.8-7.1-2.7-15.8-2.7-26.2
			c0-10.9,0.9-20,2.7-27.1s4.7-12.7,8.6-16.8s9.1-6.9,15.4-8.6c6.3-1.7,13.8-2.5,22.5-2.5s16.5,0.9,22.8,2.6
			c6.3,1.7,11.4,4.6,15.3,8.7s6.8,9.7,8.6,16.8s2.7,16.1,2.7,26.9s-0.9,19.6-2.6,26.7c-1.7,7.1-4.5,12.8-8.4,16.9
			c-3.9,4.1-9,7.1-15.3,8.8S760.1,154.8,751,154.8L751,154.8z M751,131.2c3.6,0,6.6-0.3,9.1-1s4.5-2,6-4.1s2.7-5.2,3.5-9.5
			s1.2-9.9,1.2-16.8s-0.4-12.7-1.2-16.9c-0.8-4.2-2-7.3-3.5-9.4s-3.5-3.4-6-4.1s-5.5-1-9.1-1s-6.4,0.3-8.9,1c-2.5,0.7-4.5,2-6.1,4.1
			s-2.8,5.2-3.5,9.4c-0.7,4.2-1.1,9.8-1.1,16.9s0.4,12.5,1.1,16.8c0.7,4.3,1.9,7.4,3.5,9.5c1.6,2.1,3.6,3.4,6.1,4.1
			C744.6,130.9,747.5,131.2,751,131.2L751,131.2z"/>
	</g>
	<path class="st0" d="M542.2,109.2c8.6-0.2,17.3-2.9,23.6-8.8c6.2-5.9,9.6-15.1,7.4-23.3S562.5,62.3,554,63.4
		c-8.6,1.1-14.7,8.6-19.8,15.6c0.1-6.1,0.2-12.2-1.3-18.1c-1.5-5.9-4.8-11.6-10-14.6s-12.6-2.8-16.8,1.5c-5.6,5.8-3.7,15.2-1.5,22.9
		c1.8,6.1,2.9,12.2,2.6,18.5c0.3-10.4-4.7-21.3-14-25.9c-9.4-4.7-22.7-1-26.6,8.7c-3.5,8.5,0.9,18.7,7.9,24.6s16.1,8.7,25,11.3
		c-9-1.7-18.8,3.8-22.3,12.2s-0.8,19,6.1,25s17.5,7.2,25.8,3.4c8.3-3.9,14.1-12.4,15-21.6c0,9.9,5.2,19.8,13.7,24.9
		c8.5,5.1,20.2,4.6,27.8-1.7s10.1-18.4,4.9-26.8C564.7,114,552.9,111.2,542.2,109.2L542.2,109.2z M521.4,114.9
		c-6.5,0-11.8-5.3-11.8-11.8c0-6.5,5.3-11.8,11.8-11.8s11.8,5.3,11.8,11.8S527.9,114.9,521.4,114.9z"/>
</g>
</svg>
