<?xml version="1.0" encoding="UTF-8"?><svg id="Laag_1" xmlns="http://www.w3.org/2000/svg" viewBox="0 0 235 235"><path d="M21.36,0C9.56,0,0,9.56,0,21.36V213.64c0,11.8,9.56,21.36,21.36,21.36H213.64c11.8,0,21.36-9.56,21.36-21.36V21.36c0-11.8-9.56-21.36-21.36-21.36H21.36Zm21.36,64.01h42.5c21.03,0,35.42,14.39,35.42,35.63s-14.92,35.2-36.24,35.2h-22.84v34.55h-18.84V64.01Zm18.84,15.77v39.43h18.63c13.44,0,21.32-7.01,21.32-19.57s-7.68-19.86-21.26-19.86h-18.69Zm100.87,8.09c18.98,0,30.9,8.4,32.21,22.93h-17c-1.31-5.62-6.65-9.2-15.13-9.2s-14.46,3.95-14.46,9.72c0,4.53,3.8,7.3,11.83,9.12l14.08,3.21c15.26,3.43,22.34,10.01,22.34,21.76,0,15.35-14.1,25.58-34.03,25.58s-32.49-8.63-33.88-23.16h17.9c1.75,5.92,7.36,9.43,16.42,9.43s15.48-4.01,15.48-9.93c0-4.53-3.42-7.39-11.02-9.07l-14.17-3.28c-15.34-3.5-22.55-10.59-22.55-22.64,0-14.46,13.12-24.47,31.96-24.47Z"/></svg>