<svg width="235" height="235" viewBox="0 0 235 235" fill="none" xmlns="http://www.w3.org/2000/svg">
<path d="M21.3636 0C9.56023 0 0 9.56023 0 21.3636V213.636C0 225.44 9.56023 235 21.3636 235H213.636C225.44 235 235 225.44 235 213.636V21.3636C235 9.56023 225.44 0 213.636 0H21.3636ZM42.7273 64.0075H85.2251C106.258 64.0075 120.65 78.3952 120.65 99.6413C120.65 120.524 105.732 134.837 84.4114 134.837H61.5665V169.386H42.7273V64.0075ZM61.5665 79.7798V119.211H80.1971C93.6348 119.211 101.519 112.203 101.519 99.6413C101.519 86.727 93.8363 79.7798 80.2597 79.7798H61.5665ZM162.439 87.8746C181.42 87.8746 193.337 96.2757 194.651 110.803H177.648C176.334 105.184 170.993 101.602 162.522 101.602C154.276 101.602 148.064 105.556 148.064 111.325C148.064 115.854 151.861 118.626 159.893 120.442L173.976 123.655C189.24 127.083 196.32 133.665 196.32 145.415C196.32 160.764 182.225 170.993 162.293 170.993C142.36 170.993 129.8 162.362 128.411 147.835H146.312C148.064 153.752 153.673 157.265 162.731 157.265C171.853 157.265 178.211 153.252 178.211 147.334C178.211 142.805 174.79 139.946 167.195 138.259L153.03 134.983C137.69 131.479 130.477 124.396 130.477 112.347C130.477 97.8837 143.596 87.8746 162.439 87.8746Z" fill="#E37C00"/>
</svg>
