<?xml version="1.0" encoding="utf-8"?>
<!-- Generator: Adobe Illustrator 26.4.1, SVG Export Plug-In . SVG Version: 6.00 Build 0)  -->
<svg version="1.1" id="b992fd3a-b22f-440e-8dcb-ebb488e4585d"
	 xmlns="http://www.w3.org/2000/svg" xmlns:xlink="http://www.w3.org/1999/xlink" x="0px" y="0px" viewBox="0 0 128.6 128.7"
	 style="enable-background:new 0 0 128.6 128.7;" xml:space="preserve">
<style type="text/css">
	.st0{fill:#FFFFFF;}
</style>
<path class="st0" d="M79.8,55.8c-0.6-1.2-1.4-2.2-2.5-3c-1.1-0.8-2.4-1.5-3.7-1.9c-1.4-0.5-2.9-0.9-4.4-1.1
	c-1.6-0.2-3.3-0.4-4.9-0.4h-0.4c2.7-0.8,5.2-2.4,7-4.6c1.6-2.2,2.3-4.8,2.2-7.5c0.1-3.3-1.3-6.4-3.8-8.5c-2.7-2.3-6-3.6-9.5-3.7
	H37.6v0.1c2.6,0.2,4.6,2.4,4.6,5v39.8c0,2.6-2,4.8-4.6,5V75h21.3c1,0,2,0,2.9-0.1l1-0.1c4.3-0.2,8.6-1.5,12.3-3.8
	c0.5-0.3,0.9-0.6,1.3-1c-0.9-0.6-1.9-1-2.9-1.3c-0.4,1-1.1,1.9-1.9,2.5c-1.3,1-2.7,1.7-4.3,2.1c-1.4,0.3-2.9,0.5-4.4,0.6
	c-0.3,0-0.7,0-1,0H61c-1.5,0-2.9,0-4.3-0.2c-0.3,0-0.7,0-1-0.1c-2.6-0.2-5.1-0.6-7.7-1.2V56.3l2.8-1.3l3.6-1.7l5.5-2.6
	c0.6-0.3,1.3-0.5,2-0.7c0.2,0,0.5-0.1,0.7-0.1h0.3h0.4c1.6,0,3.2,0.3,4.7,0.8c1.2,0.4,2.3,1.1,3.2,2c0.8,0.8,1.5,1.8,2,2.8
	c0.5,0.9,0.8,1.8,1.1,2.8c0.2,0.8,0.3,1.6,0.4,2.4c0.1,1.5,0.1,2.9-0.1,4.4c1.8,0.1,3.5,0.3,5.2,0.8c0.9-1.9,1.3-4,1.2-6.1
	C80.8,58.4,80.4,57,79.8,55.8z M62.8,48.3C62,49,61.1,49.6,60.2,50l-9.4,4.4L48,55.7v-30h6.5c1.8,0,3.7,0.3,5.4,0.9
	c1.3,0.4,2.6,1.1,3.6,2.1c0.9,0.8,1.6,1.8,2.1,2.9c0.5,1,0.8,2,1,3.1c0.2,1,0.2,2.1,0.2,3.1C67,42.5,65.6,46,62.8,48.3L62.8,48.3z
	 M74,67.2c-0.1,0.2-0.1,0.4-0.2,0.6c1.2,0.3,2.3,0.9,3.3,1.6c0.8-0.7,1.5-1.6,2-2.5c-1.6-0.4-3.2-0.7-4.9-0.7
	C74.2,66.5,74.1,66.8,74,67.2z"/>
<path class="st0" d="M86.3,71c-2-2-4.4-3.4-7.2-4.2c-1.6-0.4-3.2-0.7-4.9-0.7c-0.4,0-0.8,0-1.1,0c-4.7,0-8.4,1.1-11.3,3.4V49.3
	l-5.1,2.5l-4.9,2.3v0.3l2.2-0.9c0.1,0,0.3-0.1,0.4-0.1c0.5-0.1,1,0,1.5,0.3c0.6,0.4,0.9,1,0.9,1.7v42.9l-2.8,2.6
	c4.6,1.9,9.5,2.9,14.5,2.8c3.4,0.1,6.9-0.4,10.1-1.5c2.6-0.8,5.1-2.2,7.1-4.1c1.8-1.7,3.2-3.8,4.1-6.2c0.9-2.5,1.4-5.1,1.4-7.7
	C91,78.6,89.5,74.3,86.3,71z M84.4,94.1c-0.3,1.5-0.9,2.9-1.8,4.2c-0.7,1.1-1.7,2-2.8,2.6c-1.1,0.7-2.2,1.1-3.4,1.4
	c-1.3,0.3-2.7,0.4-4,0.4c-3.9,0.1-7.7-1.3-10.6-3.8V70.8c2.2-2.3,5.2-3.6,8.4-3.5c1.2,0,2.5,0.2,3.6,0.5c1.2,0.3,2.3,0.9,3.3,1.6
	c1.4,1,2.7,2.2,3.7,3.7c2.8,3.7,4.2,8.7,4.2,15C85,90,84.8,92.1,84.4,94.1z"/>
<path class="st0" d="M28,111.6h-1.8v1.8H28V111.6z"/>
<path class="st0" d="M13.1,30.4h-1.8v1.8h1.8L13.1,30.4z"/>
<path class="st0" d="M20.8,24.9l-4-4l0.4-0.4l4.4,1.3l-1.4-4.4l0.4-0.4l4,4l-0.4,0.4l-3.1-3.1l1.2,3.8l-0.3,0.3l-3.8-1.1l3.1,3.1
	L20.8,24.9z"/>
<path class="st0" d="M29.3,17.3l-3.4-4.5l0.5-0.4l3.4,4.5L29.3,17.3z"/>
<path class="st0" d="M34.8,13.6l-2.7-5l0.5-0.2l5.1,2.4l-2.1-4l0.5-0.3l2.7,5l-0.4,0.2l-5.2-2.4l2.1,4L34.8,13.6z"/>
<path class="st0" d="M44.3,9.1l-1.9-5.3L43,3.6l1.9,5.3L44.3,9.1z"/>
<path class="st0" d="M50.7,7.2l-1-5.5l0.5-0.1L53,5.1l1.4-4.4l0.5-0.1l1,5.5l-0.6,0.1L54.6,2l-1.2,3.8L53,5.9l-2.6-3.1l0.8,4.3
	L50.7,7.2z"/>
<path class="st0" d="M61.4,5.7L63.8,0h0.6l2.6,5.6h-0.7l-0.6-1.4l-2.9,0.1l-0.6,1.4L61.4,5.7z M64.1,0.8l-1.2,2.9h2.5L64.1,0.8
	L64.1,0.8z"/>
<path class="st0" d="M72.3,6.2l0.9-5.6l0.7,0.1l-0.8,5l2.8,0.5l-0.1,0.6L72.3,6.2z"/>
<path class="st0" d="M93.6,8.6c0.1,0,0.1,0.1,0.2,0.1c0.1,0,0.1,0.1,0.2,0.2C94,8.9,94,9,94.1,9.1c0,0.1,0,0.2,0,0.3
	c0,0.1,0,0.3-0.1,0.4c-0.1,0.3-0.3,0.5-0.6,0.6c-0.3,0.1-0.5,0.2-0.8,0.1c-0.2,0-0.4-0.1-0.6-0.2l0,0l0,0c0,0.3,0,0.5-0.2,0.8
	c-0.1,0.2-0.3,0.5-0.6,0.6c-0.3,0.2-0.6,0.3-1,0.4c-0.4,0-0.8,0-1.1-0.2l0,0c-0.3-0.1-0.5-0.3-0.7-0.5c-0.2-0.2-0.3-0.4-0.4-0.6
	c-0.1-0.2-0.2-0.4-0.2-0.7c0-0.2,0-0.4,0.1-0.6c0-0.1,0.1-0.3,0.2-0.4c0.1-0.1,0.2-0.2,0.3-0.4c0.1-0.1,0.3-0.2,0.4-0.3
	c0.2-0.1,0.4-0.1,0.6-0.1c0.2,0,0.5,0,0.7,0.1l0,0l0,0C90,8.1,90,7.9,89.9,7.7c0-0.2,0-0.4,0.1-0.6l0,0c0.2-0.3,0.4-0.5,0.8-0.6
	c0.4-0.1,0.8-0.1,1.2,0.1l0,0c0.3,0.1,0.6,0.4,0.7,0.7c0.2,0.3,0.2,0.6,0.2,0.9h-0.7c0.1-0.3,0.1-0.6,0-0.9
	c-0.1-0.3-0.2-0.5-0.4-0.6c-0.2-0.1-0.4-0.1-0.6-0.1c-0.2,0.1-0.4,0.2-0.5,0.5c-0.4,0.5-0.3,1.3,0.3,1.7c0,0,0,0,0,0v0.1
	c-0.2-0.1-0.4-0.2-0.6-0.2c-0.2,0-0.3,0-0.5,0c-0.1,0-0.3,0-0.4,0.1c-0.1,0-0.2,0.1-0.3,0.1C89,9,88.8,9.2,88.7,9.5
	c-0.1,0.3-0.2,0.6-0.1,0.9c0,0.3,0.1,0.5,0.2,0.8c0.1,0.2,0.4,0.4,0.6,0.5l0,0c0.4,0.3,1,0.2,1.4-0.1c0.2-0.2,0.4-0.4,0.6-0.7
	c0.1-0.3,0.2-0.6,0.1-0.8l0,0l-0.1-0.1l-0.2-0.1c-0.3-0.2-0.7-0.3-1-0.2c-0.1,0-0.2,0.1-0.2,0.2c-0.1,0.2-0.1,0.3,0,0.5l-0.4,0.1
	c0-0.1,0-0.2,0-0.3c0-0.1,0-0.2,0.1-0.3c0-0.1,0.1-0.2,0.2-0.3c0.4-0.3,1.1-0.2,2,0.2h0.1c0.3,0.2,0.7,0.3,1,0.3
	c0.2,0.1,0.5,0,0.7-0.1c0.1-0.1,0.2-0.2,0.2-0.4c0-0.1,0-0.3-0.1-0.4c-0.1-0.1-0.2-0.3-0.4-0.4L93.6,8.6z"/>
<path class="st0" d="M103.8,21c-0.3-0.3-0.6-0.6-0.8-0.9c-0.2-0.3-0.3-0.6-0.3-1l0.5-0.2c0.1,0.3,0.2,0.6,0.3,0.9
	c0.2,0.3,0.4,0.6,0.7,0.8c0.3,0.3,0.6,0.5,1,0.5c0.3,0,0.6-0.1,0.7-0.3c0.2-0.2,0.2-0.4,0.2-0.6c-0.1-0.3-0.2-0.6-0.4-0.8l-0.5-0.7
	c-0.3-0.3-0.4-0.7-0.5-1.1c0-0.4,0.1-0.7,0.4-1c0.2-0.2,0.5-0.4,0.8-0.5c0.3-0.1,0.6-0.1,0.9,0c0.3,0.1,0.7,0.3,0.9,0.6
	c0.3,0.2,0.5,0.5,0.7,0.8c0.2,0.3,0.2,0.6,0.3,0.9l-0.5,0.2c0-0.3-0.1-0.6-0.2-0.9c-0.1-0.3-0.3-0.5-0.6-0.7
	c-0.3-0.3-0.6-0.4-0.9-0.5c-0.3,0-0.6,0.1-0.8,0.3c-0.2,0.2-0.2,0.4-0.2,0.6c0,0.3,0.2,0.5,0.3,0.8l0.5,0.7c0.3,0.3,0.5,0.7,0.5,1.2
	c0,0.4-0.1,0.7-0.3,1c-0.2,0.2-0.5,0.4-0.7,0.4c-0.3,0.1-0.6,0-0.9-0.1C104.4,21.4,104.1,21.2,103.8,21z"/>
<path class="st0" d="M110.5,28.2c-0.4-0.5-0.6-1.1-0.6-1.7c0.1-0.6,0.5-1.2,1-1.5l2.7-2.1l0.4,0.5l-2.7,2.1
	c-0.7,0.5-0.9,1.5-0.4,2.2c0.5,0.7,1.5,0.9,2.2,0.4c0,0,0.1-0.1,0.1-0.1l2.6-2l0.4,0.5l-2.7,2.1c-0.5,0.4-1.1,0.6-1.7,0.6
	C111.4,29.1,110.8,28.8,110.5,28.2z"/>
<path class="st0" d="M116,36.6c-0.2-0.4-0.3-0.7-0.4-1.1c-0.1-0.4-0.1-0.7,0-1.1h0.6c-0.1,0.3-0.1,0.7,0,1c0.1,0.4,0.2,0.7,0.4,1
	c0.2,0.3,0.4,0.6,0.7,0.8c0.2,0.1,0.5,0.1,0.8,0c0.2-0.1,0.3-0.3,0.4-0.5c0-0.3,0-0.6-0.1-0.9l-0.2-0.8c-0.1-0.4-0.2-0.8-0.1-1.2
	c0.1-0.3,0.4-0.6,0.7-0.8c0.3-0.2,0.6-0.2,0.9-0.2c0.3,0,0.6,0.2,0.9,0.4c0.3,0.2,0.5,0.5,0.7,0.8c0.2,0.3,0.3,0.6,0.3,1
	c0.1,0.3,0,0.7-0.1,1h-0.6c0.1-0.3,0.1-0.6,0-0.9c0-0.3-0.1-0.6-0.3-0.9c-0.2-0.3-0.4-0.6-0.7-0.8c-0.3-0.1-0.6-0.1-0.9,0
	c-0.2,0.1-0.4,0.3-0.4,0.5c-0.1,0.3,0,0.6,0.1,0.8l0.2,0.8c0.2,0.4,0.2,0.9,0.1,1.3c-0.1,0.3-0.3,0.6-0.6,0.8
	c-0.3,0.1-0.6,0.2-0.8,0.2c-0.3,0-0.6-0.2-0.8-0.4C116.4,37.2,116.2,36.9,116,36.6z"/>
<path class="st0" d="M119.7,44.7l4.8-1.7l-0.7-1.9l0.5-0.2l1.6,4.5l-0.5,0.2l-0.7-1.9l-4.8,1.7L119.7,44.7z"/>
<path class="st0" d="M121.6,51.2l6,1.5l0.1,0.5l-5.1,3.4l-0.1-0.7l1.3-0.9l-0.5-2.9l-1.5-0.3L121.6,51.2z M126.9,53.1l-3-0.7
	l0.4,2.4L126.9,53.1L126.9,53.1z"/>
<path class="st0" d="M123,62.1l5.6-0.2v0.7l-5.6,0.2V62.1z"/>
<path class="st0" d="M122.9,68.8l5.6,0.6l-0.1,0.5l-4.9,2.9l4.5,0.5l-0.1,0.6l-5.6-0.6v-0.5l4.9-2.9l-4.5-0.5L122.9,68.8z"/>
<path class="st0" d="M121.3,78.6l4.7,4l-0.2,0.5l-6.1,0.8l0.2-0.7l1.6-0.2l0.8-2.8l-1.2-1L121.3,78.6z M125.2,82.6l-2.4-2l-0.7,2.4
	L125.2,82.6L125.2,82.6z"/>
<path class="st0" d="M117.7,88.9l5,2.5l-1,2c-0.2,0.4-0.6,0.8-1,1c-0.4,0.2-0.8,0.1-1.2-0.1c-0.3-0.1-0.5-0.3-0.6-0.6
	c-0.1-0.3-0.2-0.5-0.1-0.8c-0.2,0.2-0.5,0.4-0.8,0.5c-0.3,0.1-0.6,0-0.9-0.2c-0.4-0.2-0.7-0.6-0.8-1c-0.1-0.5,0-1,0.3-1.4
	L117.7,88.9z M117.9,89.7l-0.7,1.5c-0.4,0.8-0.3,1.3,0.3,1.6s1.1,0.1,1.5-0.7l0.7-1.5L117.9,89.7z M120.2,90.8l-0.7,1.4
	c-0.4,0.8-0.3,1.3,0.3,1.6s1.1,0.1,1.5-0.7l0.7-1.4L120.2,90.8z"/>
<path class="st0" d="M112.8,97.5l4.6,3.3l-0.4,0.5l-4.1-3l-1.7,2.3l-0.5-0.3L112.8,97.5z"/>
<path class="st0" d="M107.2,104.5l4,4l-2.5,2.5l-0.4-0.4l2.1-2.1l-1.3-1.4l-1.9,2l-0.4-0.4l1.9-2l-1.4-1.4l-2,2.1l-0.4-0.4
	L107.2,104.5z"/>
<path class="st0" d="M95.4,114.1l0.3,0.4l-0.4,0.3c-0.2,0.1-0.3,0.3-0.4,0.6c0,0.2,0,0.5,0.2,0.7l2.1,3.6l-0.6,0.3l-2.1-3.6
	c-0.2-0.3-0.3-0.7-0.2-1.1c0.1-0.4,0.3-0.7,0.7-0.9L95.4,114.1z"/>
<path class="st0" d="M88.5,117.9l2.2,5.2l-3.3,1.4l-0.2-0.5l2.7-1.1l-0.8-1.8l-2.5,1.1l-0.2-0.5l2.5-1.1l-0.8-1.9l-2.7,1.1l-0.2-0.5
	L88.5,117.9z"/>
<path class="st0" d="M78.4,121.4l3.1,5.1l-0.7,0.1l-2.5-4.3l-0.7,4.9l-0.5,0.1l-2.5-4.3l-0.6,5l-0.6,0.1l0.8-5.9l0.6-0.1l2.5,4.2
	l0.7-4.9L78.4,121.4z"/>
<path class="st0" d="M66.7,123l0.1,5.6l-3.5,0.1v-0.6l2.9-0.1v-1.9h-2.8v-0.6h2.8v-2h-2.9V123L66.7,123z"/>
<path class="st0" d="M57.5,122.7l-0.8,5.6l-0.7-0.1l0.7-5l-2.8-0.4l0.1-0.6L57.5,122.7z"/>
<path class="st0" d="M48.7,121l-1.7,5.4l-2.1-0.7c-0.5-0.1-0.9-0.4-1.2-0.8c-0.2-0.4-0.3-0.9-0.1-1.3c0.1-0.4,0.3-0.7,0.6-0.9
	c0.3-0.2,0.7-0.3,1.1-0.2c-0.2-0.2-0.4-0.5-0.4-0.8l-0.4-2l0.7,0.2l0.4,2c0,0.2,0.1,0.4,0.3,0.6c0.2,0.1,0.4,0.3,0.6,0.3l1,0.3
	l0.7-2.3L48.7,121z M47.2,123.6l-1.4-0.4c-0.8-0.3-1.4,0-1.6,0.7c-0.2,0.7,0.1,1.2,0.9,1.4l1.4,0.4L47.2,123.6z"/>
<path class="st0" d="M38.3,116.9l-1.2,2.4l0.6,3.6l-0.7-0.3l-0.5-2.9l-2.6,1.4l-0.7-0.3l3.3-1.7l1.2-2.4L38.3,116.9z"/>
<path class="st0" d="M20.5,103.4l-4.3,3.6l-2.3-2.7l0.4-0.4l1.9,2.2l1.5-1.2l-1.8-2.1l0.4-0.3l1.8,2.1l1.5-1.3l-1.9-2.2l0.4-0.4
	L20.5,103.4z"/>
<path class="st0" d="M14.1,94.6c0.2,0.3,0.4,0.7,0.5,1.1c0.1,0.3,0.1,0.7,0,1L14,96.8c0-0.3,0-0.7-0.1-1c-0.1-0.4-0.2-0.7-0.4-1
	c-0.2-0.3-0.4-0.6-0.8-0.8c-0.3-0.1-0.5-0.1-0.8,0.1c-0.2,0.1-0.3,0.3-0.4,0.5c0,0.3,0,0.6,0.1,0.9l0.3,0.8c0.2,0.4,0.2,0.8,0.1,1.2
	c-0.1,0.4-0.3,0.7-0.6,0.8c-0.3,0.2-0.6,0.2-0.9,0.2c-0.3,0-0.6-0.1-0.9-0.3c-0.3-0.2-0.5-0.5-0.7-0.8c-0.2-0.3-0.3-0.6-0.4-1
	c-0.1-0.3-0.1-0.7,0-1l0.6-0.1c-0.1,0.3-0.1,0.6,0,0.9c0.1,0.3,0.2,0.6,0.3,0.8c0.2,0.3,0.4,0.6,0.8,0.7c0.3,0.1,0.6,0.1,0.9-0.1
	c0.2-0.1,0.3-0.3,0.4-0.5c0-0.3,0-0.6-0.1-0.8l-0.3-0.8C11,95.2,11,94.7,11,94.3c0.1-0.3,0.3-0.6,0.6-0.8c0.2-0.2,0.5-0.2,0.8-0.2
	c0.3,0,0.6,0.1,0.9,0.3C13.6,93.9,13.9,94.2,14.1,94.6z"/>
<path class="st0" d="M10,86.6l-4.7,1.9l0.8,1.9l-0.5,0.2l-1.8-4.4L4.3,86l0.8,1.9L9.8,86L10,86.6z"/>
<path class="st0" d="M6.2,72.4H5.7l-2.3-1.6c-0.3-0.2-0.6-0.4-0.9-0.5c-0.2-0.1-0.5-0.1-0.8-0.1c-0.6,0.1-0.9,0.5-0.9,1.2
	C1,72,1.2,72.5,1.7,72.9l-0.5,0.3C1,73,0.8,72.7,0.6,72.5c-0.2-0.3-0.3-0.6-0.3-1c-0.1-0.5,0-0.9,0.3-1.3c0.2-0.3,0.6-0.6,1.1-0.6
	c0.3,0,0.7,0,1,0.1c0.4,0.2,0.8,0.4,1.1,0.7l1.8,1.3l-0.3-2.7l0.6-0.1L6.2,72.4z"/>
<path class="st0" d="M5.8,61.4c0,0.6-0.3,1.1-0.8,1.4c-0.7,0.3-1.4,0.5-2.2,0.4c-0.8,0-1.5-0.2-2.1-0.6c-0.8-0.6-0.9-1.8-0.3-2.6
	c0.1-0.2,0.3-0.3,0.5-0.4c0.7-0.3,1.4-0.4,2.2-0.3c0.8,0,1.5,0.2,2.1,0.6C5.6,60.3,5.8,60.8,5.8,61.4z M5.2,61.4
	c0-0.4-0.2-0.8-0.5-1C4.2,60.1,3.5,60,2.9,60c-0.6-0.1-1.2,0-1.8,0.2c-0.6,0.3-0.8,1-0.5,1.6c0.1,0.2,0.2,0.3,0.4,0.4
	c0.5,0.3,1.1,0.4,1.7,0.4c0.6,0.1,1.2,0,1.8-0.2C5,62.2,5.2,61.8,5.2,61.4L5.2,61.4z"/>
<path class="st0" d="M6.6,53.5l-0.6-0.1l0.3-1.3l-4.2-0.9l0.4,1.1L2,52.5l-0.6-1.6l0.1-0.5l5,1l0.2-1.2l0.6,0.1L6.6,53.5z"/>
<path class="st0" d="M9.5,43.5c-0.1,0.3-0.3,0.5-0.5,0.7c-0.2,0.2-0.4,0.4-0.7,0.5l-0.4-0.4c0.2-0.1,0.5-0.2,0.7-0.4
	c0.2-0.2,0.3-0.4,0.4-0.6c0.2-0.4,0.2-0.9-0.1-1.3c-0.4-0.5-0.9-0.8-1.5-1L7,40.8c0.3,0.2,0.5,0.5,0.6,0.8c0.1,0.3,0.1,0.7-0.1,1
	c-0.1,0.3-0.3,0.5-0.5,0.8c-0.2,0.2-0.5,0.3-0.8,0.3c-0.3,0-0.6,0-0.9-0.1c-0.3-0.1-0.6-0.3-0.8-0.5c-0.2-0.2-0.3-0.5-0.4-0.8
	c-0.1-0.3,0-0.6,0.1-1c0.2-0.6,0.6-1,1.2-1.2c0.7-0.1,1.4-0.1,2.1,0.2c0.8,0.2,1.4,0.7,1.9,1.4C9.7,42.2,9.8,42.9,9.5,43.5z
	 M7.1,42.3c0.1-0.3,0.1-0.6,0-0.9c-0.1-0.3-0.4-0.5-0.7-0.6c-0.3-0.1-0.7-0.1-1,0c-0.3,0.1-0.5,0.4-0.6,0.7c-0.1,0.3-0.1,0.6,0,0.9
	c0.1,0.3,0.4,0.5,0.7,0.6c0.3,0.1,0.7,0.1,1,0C6.7,42.9,6.9,42.6,7.1,42.3z"/>
</svg>
