<?xml version="1.0" encoding="utf-8"?>
<!-- Generator: Adobe Illustrator 26.4.1, SVG Export Plug-In . SVG Version: 6.00 Build 0)  -->
<svg version="1.1" id="Laag_1" xmlns="http://www.w3.org/2000/svg" xmlns:xlink="http://www.w3.org/1999/xlink" x="0px" y="0px"
	 viewBox="0 0 1478.8 270.4" style="enable-background:new 0 0 1478.8 270.4;" xml:space="preserve">
<style type="text/css">
	.st0{fill:#FFFFFF;}
</style>
<g id="a">
</g>
<g id="b">
	<g id="c">
		<g>
			<path class="st0" d="M72.1,75.7H42.2v123.1H18.5V75.7H0V56.2h18.5V46.1c0-16,4.1-27.6,12.4-35C39.1,3.7,52.3,0,70.5,0v19.8
				c-10.4,0-17.7,2-22,6.1s-6.4,10.8-6.4,20.2v10.2h29.9C72.1,56.2,72.1,75.7,72.1,75.7z"/>
			<path class="st0" d="M123.4,6.2v192.6H99.7V6.2H123.4z"/>
			<path class="st0" d="M163.7,88.6c5.9-11,14-19.6,24.3-25.6c10.3-6.1,21.8-9.1,34.5-9.1s23.3,2.7,32.5,8.1
				c9.2,5.4,16.1,12.2,20.6,20.3v-26h23.9v142.6h-23.9v-26.6c-4.7,8.3-11.7,15.2-20.9,20.7c-9.3,5.5-20.1,8.2-32.4,8.2
				s-24.1-3.1-34.4-9.4c-10.2-6.2-18.3-15-24.2-26.3c-5.9-11.3-8.9-24.1-8.9-38.5S157.8,99.6,163.7,88.6L163.7,88.6z M269.1,99.2
				c-4.3-8-10.2-14.1-17.6-18.3c-7.4-4.2-15.5-6.4-24.3-6.4s-16.9,2.1-24.2,6.2s-13.1,10.2-17.4,18.2s-6.5,17.3-6.5,28.1
				s2.2,20.4,6.5,28.5c4.3,8.1,10.1,14.2,17.4,18.5c7.3,4.2,15.4,6.4,24.2,6.4s17-2.1,24.3-6.4c7.4-4.2,13.2-10.4,17.6-18.5
				c4.3-8.1,6.5-17.5,6.5-28.2S273.4,107.1,269.1,99.2z"/>
			<path class="st0" d="M392.7,177L437,56.2h25.2l-56,142.6h-27.6l-56-142.6h25.5L392.7,177L392.7,177z"/>
			<path class="st0" d="M511.5,192.1c-10.8-6.1-19.4-14.7-25.5-25.9c-6.2-11.2-9.2-24.2-9.2-38.9s3.2-27.5,9.5-38.7
				c6.3-11.2,15-19.8,25.9-25.8c10.9-6,23.2-9,36.7-9s25.8,3,36.7,9s19.6,14.5,25.9,25.6c6.3,11.1,9.5,24,9.5,38.8
				s-3.2,27.7-9.8,38.9s-15.3,19.8-26.4,25.9c-11.1,6.1-23.4,9.1-37,9.1S522.4,198.2,511.5,192.1L511.5,192.1z M571.8,174.4
				c7.5-4,13.5-10,18.1-18c4.6-8,6.9-17.7,6.9-29.2s-2.3-21.2-6.8-29.2s-10.4-13.9-17.7-17.8c-7.3-3.9-15.2-5.9-23.7-5.9
				s-16.6,1.9-23.8,5.9c-7.2,3.9-13,9.8-17.3,17.8s-6.5,17.7-6.5,29.2s2.1,21.4,6.4,29.4c4.2,8,9.9,13.9,17,17.8
				c7.1,3.9,14.9,5.9,23.4,5.9S564.3,178.4,571.8,174.4L571.8,174.4z"/>
			<path class="st0" d="M693.7,60.4c7.7-4.5,17.1-6.8,28.2-6.8v24.5h-6.2c-26.5,0-39.8,14.4-39.8,43.2v77.6h-23.7V56.2h23.7v23.2
				C680,71.2,686,64.9,693.7,60.4z"/>
			<path class="st0" d="M773.1,191.8c-11.4-6.1-20.3-14.8-26.8-26s-9.8-24.5-9.8-39.6s3.3-28.1,9.9-39.4
				c6.6-11.4,15.6-20.1,27.1-26.2c11.5-6.1,24.3-9.1,38.5-9.1s27.1,3,38.5,9.1c11.5,6.1,20.5,14.8,27.1,26.2
				c6.6,11.4,9.9,24.5,9.9,39.4s-3.3,28.1-10,39.4c-6.7,11.4-15.8,20.1-27.3,26.2c-11.5,6.1-24.4,9.1-38.7,9.1
				S784.5,197.9,773.1,191.8z M833.2,153c6-6.2,9-15.2,9-26.8s-2.9-20.6-8.7-26.8c-5.8-6.2-13-9.4-21.5-9.4s-15.9,3.1-21.6,9.2
				c-5.7,6.2-8.6,15.1-8.6,26.9s2.8,20.6,8.5,26.8s12.7,9.4,21.2,9.4S827.2,159.3,833.2,153L833.2,153z"/>
			<path class="st0" d="M955.7,6.2v192.6h-44.5V6.2H955.7z"/>
			<path class="st0" d="M1015.7,191.8c-11.4-6.1-20.3-14.8-26.8-26s-9.8-24.5-9.8-39.6s3.3-28.1,9.9-39.4
				c6.6-11.4,15.6-20.1,27.1-26.2c11.4-6.1,24.3-9.1,38.5-9.1s27.1,3,38.5,9.1c11.4,6.1,20.5,14.8,27.1,26.2
				c6.6,11.4,9.9,24.5,9.9,39.4s-3.3,28.1-10,39.4c-6.7,11.4-15.8,20.1-27.3,26.2c-11.5,6.1-24.4,9.1-38.7,9.1
				S1027,197.9,1015.7,191.8z M1075.8,153c6-6.2,9-15.2,9-26.8s-2.9-20.6-8.7-26.8c-5.8-6.2-13-9.4-21.5-9.4s-15.9,3.1-21.6,9.2
				c-5.7,6.2-8.6,15.1-8.6,26.9s2.8,20.6,8.5,26.8s12.7,9.4,21.2,9.4S1069.8,159.3,1075.8,153z"/>
			<path class="st0" d="M1235.8,57.8c7.7,4.2,13.7,9.6,17.8,16.4V53.6h44.5v145c0,13.4-2.7,25.5-7.9,36.3
				c-5.3,10.8-13.4,19.5-24.2,25.9c-10.8,6.4-24.3,9.6-40.5,9.6c-21.5,0-38.9-5.1-52.3-15.2c-13.4-10.1-21-23.9-22.9-41.2h44
				c1.4,5.6,4.7,9.9,9.9,13.1c5.2,3.2,11.6,4.8,19.3,4.8c9.2,0,16.5-2.6,22-7.9c5.5-5.3,8.2-13.8,8.2-25.4V178
				c-4.3,6.8-10.3,12.3-18,16.5c-7.6,4.2-16.6,6.4-26.8,6.4c-12,0-22.8-3.1-32.5-9.2c-9.7-6.2-17.4-14.9-23-26.3
				c-5.6-11.4-8.5-24.5-8.5-39.4s2.8-28,8.5-39.3s13.3-19.9,23-26c9.7-6.1,20.6-9.1,32.5-9.1C1219.1,51.5,1228.1,53.6,1235.8,57.8
				L1235.8,57.8z M1244.4,99.9c-6.2-6.4-13.7-9.6-22.5-9.6s-16.4,3.2-22.5,9.5c-6.2,6.3-9.2,15.1-9.2,26.2s3.1,19.9,9.2,26.4
				s13.7,9.8,22.5,9.8s16.3-3.2,22.5-9.6s9.2-15.2,9.2-26.3S1250.6,106.4,1244.4,99.9L1244.4,99.9z"/>
			<path class="st0" d="M1478.8,53.6l-91.1,214.2h-47.9l33.3-73.9L1314,53.6h49.7l33.6,90.8l33.3-90.8L1478.8,53.6L1478.8,53.6z"/>
		</g>
	</g>
</g>
</svg>
