<?xml version="1.0" encoding="utf-8"?>
<!-- Generator: Adobe Illustrator 26.4.1, SVG Export Plug-In . SVG Version: 6.00 Build 0)  -->
<svg version="1.1" id="a" xmlns="http://www.w3.org/2000/svg" xmlns:xlink="http://www.w3.org/1999/xlink" x="0px" y="0px"
	 viewBox="0 0 500 262.5" style="enable-background:new 0 0 500 262.5;" xml:space="preserve">
<style type="text/css">
	.st0{fill:#FFFFFF;}
</style>
<path class="st0" d="M7,122.2c0.3,0.2,0.6,0.2,0.9,0c0.3-0.1,0.6-0.4,0.8-1l1-2.2l8.4,4l-1,2.2c-0.2,0.5-0.3,0.9-0.2,1.2
	s0.3,0.5,0.6,0.7c0.3,0.2,0.6,0.2,0.9,0c0.3-0.1,0.6-0.4,0.8-1l3.1-6.4c0.2-0.5,0.3-0.9,0.2-1.2s-0.3-0.5-0.6-0.7
	c-0.3-0.2-0.6-0.2-0.9,0c-0.3,0.1-0.6,0.4-0.8,1l-1,2.2l-8.4-4l1-2.2c0.2-0.5,0.3-0.9,0.2-1.2s-0.3-0.6-0.6-0.7
	c-0.3-0.2-0.6-0.2-0.9,0s-0.6,0.4-0.8,1l-3.1,6.4c-0.2,0.5-0.3,0.9-0.2,1.2S6.7,122.1,7,122.2z"/>
<path class="st0" d="M26.7,112c0-0.3-0.2-0.6-0.5-0.8c-0.4-0.2-0.8-0.3-1.2-0.1c-0.2,0.1-0.5,0.4-0.8,0.9l-3.6-2.5
	c-0.2-0.9-0.3-1.6-0.2-2.1c0.1-0.5,0.2-0.9,0.5-1.4c0.4-0.6,0.8-1,1.3-1.1c0.4-0.1,0.7,0,1.2,0.3l3.7,2.5c-0.3,0.4-0.4,0.8-0.4,1.1
	c0,0.3,0.2,0.6,0.5,0.8c0.3,0.2,0.6,0.3,0.9,0.2c0.3-0.1,0.6-0.3,1-0.8l1.2-1.8c0.3-0.5,0.5-0.9,0.4-1.2c0-0.3-0.2-0.6-0.5-0.8
	c-0.3-0.2-0.6-0.3-0.9-0.2c-0.3,0.1-0.6,0.3-0.9,0.7l-3.6-2.5c-0.9-0.6-1.9-0.9-2.8-0.7c-1.2,0.2-2.2,0.8-3,2
	c-0.3,0.5-0.6,1-0.7,1.6c-0.1,0.5-0.2,1.1-0.1,1.6l-0.7-0.4l-1.3,1.8c-0.3,0.5-0.5,0.9-0.4,1.2c0,0.3,0.2,0.6,0.5,0.8
	c0.3,0.2,0.6,0.3,0.9,0.2s0.6-0.3,0.9-0.7l4.7,3.2c-0.3,0.5-0.5,0.9-0.5,1.1c0,0.4,0.2,0.8,0.5,1c0.3,0.2,0.6,0.3,0.9,0.2
	c0.3-0.1,0.6-0.3,1-0.8l1.5-2.2C26.6,112.7,26.7,112.3,26.7,112L26.7,112z"/>
<path class="st0" d="M35.9,94.1c-0.7-0.1-1.5,0.1-2.2,0.5c-0.6,0.3-1.5,0.9-2.7,1.9c-0.7,0.5-1.1,0.9-1.4,0.9
	c-0.4,0.1-0.6,0.1-0.7,0c-0.1-0.1-0.1-0.3-0.1-0.6c0.1-0.6,0.5-1.2,1.2-1.9c0.3-0.3,0.7-0.6,1-0.8c0.4-0.2,0.8-0.4,1.2-0.5
	c0.2,0.2,0.5,0.2,0.8,0.2c0.3,0,0.5-0.2,0.7-0.4c0.3-0.3,0.4-0.7,0.3-1.1c0-0.2-0.3-0.5-0.6-0.9L33,91.1c-0.4-0.4-0.8-0.6-1.1-0.6
	s-0.6,0.1-0.8,0.3c-0.1,0.1-0.1,0.2-0.2,0.3c0,0.1-0.1,0.3-0.1,0.5c-0.5,0.2-0.9,0.4-1.3,0.7s-0.8,0.6-1.2,1
	c-1.1,1.1-1.7,2.3-1.8,3.6c-0.1,0.9,0.2,1.7,0.8,2.2c0.6,0.6,1.3,0.8,2.2,0.7c0.9-0.1,2-0.7,3.5-2c1-0.8,1.7-1.3,2.1-1.5
	c0.4-0.2,0.8-0.1,1,0.1c0.1,0.1,0.2,0.3,0.1,0.7c-0.2,0.7-0.6,1.4-1.4,2.2c-0.5,0.5-0.9,0.8-1.4,1.1c-0.5,0.3-0.9,0.4-1.4,0.5
	c-0.4-0.2-0.6-0.3-0.9-0.2s-0.5,0.2-0.7,0.4c-0.2,0.3-0.4,0.6-0.3,0.9c0,0.3,0.2,0.7,0.7,1.1l0.6,0.6c0.4,0.4,0.8,0.6,1.1,0.6
	c0.3,0,0.6-0.1,0.9-0.4c0.1-0.1,0.2-0.2,0.2-0.3s0.1-0.3,0.1-0.4c0.5-0.2,1-0.5,1.5-0.8c0.5-0.3,1-0.8,1.4-1.2
	c1.2-1.2,1.8-2.5,2-3.9c0.1-0.9-0.2-1.7-0.8-2.3C37.2,94.4,36.6,94.2,35.9,94.1L35.9,94.1z"/>
<path class="st0" d="M47.9,96.5c0.5-0.3,0.7-0.7,0.8-1s0-0.6-0.2-0.9c-0.2-0.3-0.5-0.4-0.8-0.5c-0.3,0-0.7,0.1-1.2,0.5l-1.1,0.9
	L43,92.5c0.7-0.1,1.3-0.2,1.9-0.4c0.6-0.2,1.1-0.5,1.6-0.9c1.1-0.9,1.9-2,2.2-3.3c0.5-1.6,0.2-3.1-0.8-4.3c-0.9-1.1-2.1-1.8-3.7-1.9
	c-1.6-0.2-3,0.2-4.3,1.2c-0.5,0.4-0.9,0.8-1.3,1.3s-0.6,1.1-0.8,1.7l-0.5-0.6l-2.2,1.7c-0.5,0.3-0.7,0.7-0.8,1s0,0.6,0.2,0.9
	c0.2,0.3,0.5,0.4,0.8,0.5c0.3,0,0.7-0.1,1.2-0.5l0.3-0.2l6.5,8.5l-0.3,0.2c-0.5,0.3-0.7,0.7-0.8,1s0,0.6,0.2,0.9
	c0.2,0.3,0.5,0.4,0.8,0.4c0.3,0,0.7-0.1,1.2-0.5L47.9,96.5L47.9,96.5z M40.5,89.2c-0.3-0.4-0.5-1.1-0.5-1.8c0-1.1,0.5-2,1.4-2.8
	c0.6-0.4,1.2-0.7,1.8-0.8c0.6-0.1,1.2,0,1.7,0.3c0.5,0.2,0.9,0.5,1.1,0.8c0.4,0.5,0.5,1.2,0.3,2.1c-0.2,0.9-0.7,1.6-1.4,2.2
	c-0.8,0.6-1.6,0.9-2.5,0.8C41.6,90,40.9,89.7,40.5,89.2L40.5,89.2z"/>
<rect x="49.1" y="71.3" transform="matrix(0.8792 -0.4764 0.4764 0.8792 -28.4546 32.8123)" class="st0" width="2.8" height="2.5"/>
<path class="st0" d="M48.9,77.4c-0.1,0.3-0.1,0.6,0.1,0.9c0.2,0.3,0.4,0.5,0.7,0.6c0.3,0.1,0.7,0,1.2-0.3l1.7-0.9l2.7,5.1l-2.5,1.3
	c-0.5,0.3-0.8,0.6-0.9,0.9c-0.1,0.3-0.1,0.6,0.1,0.9c0.2,0.3,0.4,0.5,0.7,0.6s0.7,0,1.2-0.3l7.1-3.8c0.5-0.3,0.8-0.6,0.9-0.9
	c0.1-0.3,0.1-0.6-0.1-0.9c-0.2-0.3-0.4-0.5-0.7-0.6s-0.7,0-1.2,0.3l-2.5,1.3l-3.9-7.1l-3.8,2C49.3,76.8,49,77.1,48.9,77.4L48.9,77.4
	z"/>
<path class="st0" d="M62.4,72.5c0.3,0.1,0.7,0.1,1.3-0.1l0.8-0.3l1.9,5.4L65.1,78c-0.5,0.2-0.9,0.4-1,0.7c-0.2,0.3-0.2,0.6-0.1,0.9
	c0.1,0.3,0.3,0.6,0.6,0.7c0.3,0.1,0.7,0.1,1.3-0.1l6.7-2.4c0.5-0.2,0.9-0.4,1-0.7c0.2-0.3,0.2-0.6,0.1-0.9c-0.1-0.3-0.3-0.6-0.6-0.7
	c-0.3-0.1-0.7-0.1-1.3,0.1l-3.2,1.1l-1.2-3.4c0.7-1.1,1.2-2,1.7-2.6c0.5-0.6,0.9-1,1.2-1.1c0.2-0.1,0.6,0,1,0.1s0.7,0.2,1,0.1
	c0.3-0.1,0.5-0.3,0.7-0.6s0.2-0.6,0.1-0.9c-0.1-0.4-0.5-0.7-1.1-0.9c-0.9-0.3-1.7-0.3-2.4-0.1c-0.5,0.2-0.9,0.5-1.4,0.9
	c-0.5,0.4-1,1.1-1.7,2.1l-0.5-1.4l-3,1.1c-0.5,0.2-0.9,0.4-1,0.7s-0.2,0.6-0.1,0.9S62.1,72.4,62.4,72.5L62.4,72.5z"/>
<path class="st0" d="M77.5,70.6c-0.8,1-1.2,2-1,3c0.2,0.8,0.7,1.5,1.6,2c0.9,0.5,2,0.7,3.2,0.4c0.6-0.1,1.2-0.3,1.9-0.6
	s1.3-0.6,1.8-1.1l0.1,0.6l2.7-0.5c0.6-0.1,0.9-0.3,1.1-0.5s0.3-0.6,0.2-0.9c-0.1-0.3-0.2-0.6-0.5-0.8S88,72,87.4,72.1L87,72.2
	l-0.9-4.8c-0.2-1.1-0.8-1.9-1.7-2.3c-0.9-0.5-2.1-0.6-3.5-0.3c-0.5,0.1-1,0.2-1.6,0.4c-0.6,0.2-1.1,0.4-1.7,0.7
	c-0.4,0.2-0.7,0.3-0.8,0.5c-0.1,0.1-0.2,0.2-0.2,0.4c-0.1,0.2-0.1,0.3,0,0.5c0.1,0.3,0.2,0.6,0.5,0.8c0.3,0.2,0.5,0.2,0.8,0.2
	c0.2,0,0.5-0.2,0.9-0.3c1.1-0.5,1.9-0.8,2.6-0.9c0.8-0.2,1.4-0.1,1.8,0c0.3,0.2,0.5,0.4,0.6,0.8l0.1,0.6c-0.9,0-1.8,0.1-2.5,0.2
	C79.7,68.9,78.4,69.6,77.5,70.6L77.5,70.6z M84.3,70.8l0.2,1c-0.5,0.5-1.1,0.9-1.7,1.2c-0.7,0.3-1.3,0.6-1.8,0.7
	c-0.7,0.1-1.2,0.1-1.6-0.1c-0.2-0.1-0.4-0.3-0.4-0.5c-0.1-0.3,0.1-0.6,0.5-1c0.6-0.6,1.4-1,2.3-1.1C82.5,70.8,83.4,70.8,84.3,70.8
	L84.3,70.8z"/>
<path class="st0" d="M92.5,66l0.8,0l0.1,5.2c0,0.9,0.4,1.7,1.2,2.3c0.8,0.6,1.9,0.9,3.3,0.9c0.8,0,1.7-0.2,2.8-0.5
	c1.1-0.3,1.8-0.7,2.2-1.1c0.2-0.2,0.4-0.5,0.3-0.8c0-0.3-0.1-0.6-0.4-0.8c-0.2-0.2-0.5-0.3-0.8-0.3c-0.2,0-0.5,0.1-0.9,0.3
	c-1,0.5-2.1,0.8-3.3,0.8c-0.8,0-1.4-0.1-1.7-0.3c-0.2-0.2-0.3-0.5-0.3-1l-0.1-4.7l4.4-0.1c0.6,0,1-0.1,1.2-0.3s0.3-0.5,0.3-0.9
	s-0.1-0.6-0.4-0.8c-0.2-0.2-0.7-0.3-1.2-0.3l-4.4,0.1l-0.1-2.1c0-0.6-0.1-1-0.4-1.2c-0.2-0.2-0.5-0.3-0.9-0.3s-0.6,0.1-0.8,0.4
	c-0.2,0.2-0.3,0.7-0.3,1.2l0.1,2.1l-0.8,0c-0.6,0-1,0.1-1.2,0.4c-0.2,0.2-0.3,0.5-0.3,0.9c0,0.3,0.1,0.6,0.4,0.8
	C91.5,65.9,91.9,66,92.5,66L92.5,66z"/>
<rect x="110.1" y="59.7" transform="matrix(0.1335 -0.9911 0.9911 0.1335 35.9317 163.2513)" class="st0" width="2.5" height="2.8"/>
<path class="st0" d="M106,74.2l8,1.1c0.6,0.1,1,0,1.2-0.2s0.4-0.4,0.5-0.8c0.1-0.3,0-0.7-0.2-0.9s-0.6-0.4-1.2-0.5l-2.8-0.4l1.1-8
	l-4.2-0.6c-0.6-0.1-1,0-1.2,0.2c-0.3,0.2-0.4,0.4-0.5,0.8c-0.1,0.3,0,0.7,0.2,0.9s0.6,0.4,1.2,0.5l1.9,0.3l-0.8,5.7l-2.8-0.4
	c-0.6-0.1-1,0-1.2,0.2c-0.3,0.2-0.4,0.4-0.5,0.8c-0.1,0.3,0,0.7,0.2,0.9C105.1,74,105.5,74.1,106,74.2L106,74.2z"/>
<path class="st0" d="M123.1,78c1.1,0.3,2.2,0.5,3.4,0.6c1.2,0.1,2,0.1,2.4-0.1c0.3-0.1,0.5-0.4,0.6-0.7c0.1-0.3,0.1-0.6-0.1-0.9
	c-0.1-0.3-0.4-0.5-0.7-0.6c-0.2-0.1-0.6-0.1-1.3-0.1c-1.5-0.1-2.7-0.2-3.5-0.5c-1-0.3-1.8-0.7-2.3-1.3c-0.5-0.5-0.8-1.1-0.8-1.8
	l9.3,2.8l0.3-1c0.2-0.7,0.3-1.4,0.2-2.1c-0.1-0.9-0.3-1.7-0.7-2.4c-0.3-0.5-0.7-1-1.4-1.6s-1.5-1-2.4-1.2c-1.5-0.5-3-0.4-4.5,0.3
	c-1.5,0.6-2.4,1.8-2.9,3.3c-0.4,1.5-0.3,2.9,0.5,4.3S121.3,77.4,123.1,78L123.1,78z M123.4,69.4c0.7-0.2,1.4-0.1,2.1,0.1
	c0.8,0.2,1.4,0.6,1.8,1.1c0.5,0.5,0.8,1.1,0.9,1.9l-6.7-2C122.1,69.9,122.7,69.5,123.4,69.4L123.4,69.4z"/>
<path class="st0" d="M5.8,167.5c0.2-0.2,0.3-0.5,0.3-0.9c0-0.4-0.2-0.6-0.4-0.8c-0.2-0.2-0.7-0.3-1.2-0.3l-1.8,0.1l-0.2-5.4l9.6,6.8
	l2.3-0.1l-0.4-9.8l-4.1,0.2c-0.6,0-1,0.1-1.2,0.4c-0.2,0.2-0.3,0.5-0.3,0.9c0,0.4,0.1,0.6,0.4,0.8c0.2,0.2,0.7,0.3,1.2,0.3l1.7-0.1
	L12,164l-9.6-6.8L0,157.4l0.5,10.7l4.1-0.2C5.2,167.9,5.6,167.8,5.8,167.5L5.8,167.5z"/>
<path class="st0" d="M11.9,173.4c-0.1-0.6-0.3-0.9-0.6-1.1c-0.3-0.2-0.6-0.3-0.9-0.2c-0.4,0.1-0.6,0.2-0.8,0.5
	c-0.2,0.3-0.2,0.7-0.1,1.2l0.4,1.9l-5.6,1.1l-0.6-2.8c-0.1-0.6-0.3-0.9-0.6-1.1c-0.3-0.2-0.6-0.3-0.9-0.2c-0.4,0.1-0.6,0.2-0.8,0.5
	s-0.2,0.7-0.1,1.3l1.6,7.9c0.1,0.6,0.3,0.9,0.6,1.1c0.3,0.2,0.6,0.3,0.9,0.2c0.3-0.1,0.6-0.2,0.8-0.5s0.2-0.7,0.1-1.3l-0.6-2.8
	l8-1.6L11.9,173.4L11.9,173.4z"/>
<rect x="14.3" y="173.8" transform="matrix(0.9803 -0.1975 0.1975 0.9803 -34.3036 6.5215)" class="st0" width="2.5" height="2.8"/>
<rect x="18.5" y="188.6" transform="matrix(0.9389 -0.3443 0.3443 0.9389 -64.2221 18.4086)" class="st0" width="2.5" height="2.8"/>
<path class="st0" d="M15.2,187c-0.2-0.5-0.4-0.9-0.7-1s-0.6-0.2-0.9-0.1c-0.3,0.1-0.6,0.3-0.7,0.6s-0.1,0.7,0.1,1.3l1.7,4.5l-8.1,3
	c-0.6,0.2-1.1,0.2-1.6-0.1c-0.5-0.2-0.9-0.7-1.1-1.4l-0.9-2.4c-0.2-0.5-0.4-0.9-0.7-1s-0.6-0.2-0.9,0c-0.3,0.1-0.6,0.3-0.7,0.6
	s-0.1,0.7,0.1,1.3l0.9,2.5c0.3,0.9,0.8,1.5,1.5,2.1c0.7,0.5,1.3,0.9,2.1,1c0.7,0.1,1.4,0,2.2-0.3l10.3-3.8L15.2,187L15.2,187z"/>
<path class="st0" d="M21.9,202.4c-0.4-0.4-0.9-0.6-1.4-0.9l0.7-0.4l-1.1-2c-0.3-0.5-0.6-0.8-0.9-0.9s-0.6-0.1-0.9,0.1
	s-0.5,0.4-0.6,0.7c-0.1,0.3,0,0.7,0.2,1.1l-5,2.8c-0.3-0.5-0.5-0.9-0.7-1c-0.4-0.2-0.8-0.2-1.1,0c-0.3,0.2-0.5,0.4-0.6,0.7
	c-0.1,0.3,0,0.7,0.3,1.2l1.3,2.4c0.3,0.5,0.6,0.8,0.9,0.9s0.6,0.1,0.9-0.1c0.4-0.2,0.6-0.6,0.6-1c0-0.2-0.1-0.6-0.4-1.1l3.9-2.1
	c0.9,0.2,1.5,0.5,1.9,0.7c0.4,0.3,0.7,0.6,1,1.1c0.4,0.6,0.5,1.2,0.4,1.6c-0.1,0.4-0.3,0.7-0.8,0.9l-3.9,2.2
	c-0.2-0.4-0.5-0.7-0.8-0.8c-0.3-0.1-0.6-0.1-0.9,0.1c-0.3,0.2-0.5,0.4-0.6,0.7c-0.1,0.3,0,0.7,0.3,1.2l1,1.9
	c0.3,0.5,0.6,0.8,0.9,0.9c0.3,0.1,0.6,0.1,0.9-0.1c0.3-0.2,0.5-0.4,0.6-0.7c0.1-0.3,0-0.7-0.2-1.1l3.9-2.1c1-0.5,1.6-1.3,1.9-2.2
	c0.4-1.1,0.2-2.3-0.5-3.5C22.6,203.2,22.3,202.7,21.9,202.4L21.9,202.4z"/>
<path class="st0" d="M57.4,237.9c0.4,0,0.8-0.2,1-0.5c0.2-0.3,0.3-0.6,0.2-0.9c-0.1-0.3-0.3-0.6-0.8-1l-2.6-1.8
	c-0.5-0.3-0.9-0.5-1.2-0.4c-0.3,0-0.6,0.2-0.8,0.5s-0.3,0.6-0.2,0.9s0.3,0.6,0.8,1l0.4,0.3l-7.5,4.7l1.9-8.6l0.5,0.3
	c0.5,0.3,0.9,0.5,1.2,0.4c0.3,0,0.6-0.2,0.8-0.5c0.2-0.3,0.3-0.6,0.2-0.9c-0.1-0.3-0.3-0.6-0.8-1l-2.6-1.8c-0.5-0.3-0.9-0.5-1.2-0.4
	c-0.3,0-0.6,0.2-0.8,0.5c-0.2,0.4-0.3,0.7-0.1,1.1c0.1,0.2,0.3,0.5,0.8,0.8l-2.7,12.3l1.9,1.3l10.7-6.7
	C56.8,237.8,57.2,238,57.4,237.9L57.4,237.9z"/>
<path class="st0" d="M65.2,243.5c-0.6-0.7-1.3-1.2-2.2-1.6c-1.4-0.7-2.9-0.9-4.5-0.5c-1.6,0.4-2.7,1.3-3.5,2.8
	c-0.7,1.4-0.8,2.8-0.2,4.3c0.5,1.5,1.7,2.6,3.4,3.4c1,0.5,2.1,0.9,3.2,1.2c1.2,0.3,2,0.4,2.4,0.3c0.3-0.1,0.5-0.3,0.7-0.6
	c0.2-0.3,0.2-0.6,0.1-0.9c-0.1-0.3-0.3-0.5-0.6-0.6c-0.2-0.1-0.6-0.2-1.2-0.4c-1.5-0.3-2.6-0.7-3.4-1c-1-0.5-1.6-1-2-1.6
	c-0.4-0.6-0.6-1.2-0.5-1.9l8.7,4.3l0.4-0.9c0.3-0.7,0.5-1.4,0.6-2c0.1-0.9-0.1-1.8-0.3-2.5C66.1,244.8,65.8,244.2,65.2,243.5
	L65.2,243.5z M58,244.3c0.6-0.4,1.3-0.7,2-0.7c0.7,0,1.4,0.1,2.1,0.5c0.7,0.4,1.3,0.8,1.7,1.4c0.4,0.6,0.6,1.2,0.6,2L58,244.3
	L58,244.3z"/>
<path class="st0" d="M82.1,251.2c0.1-0.4,0-0.8-0.3-1.3c-0.5-0.8-1.1-1.3-1.9-1.5c-0.5-0.1-1-0.2-1.6-0.1c-0.6,0.1-1.5,0.3-2.7,0.7
	l0.4-1.4l-3.1-1c-0.5-0.2-1-0.2-1.3-0.1c-0.3,0.1-0.5,0.4-0.6,0.7c-0.1,0.3-0.1,0.6,0.1,0.9s0.5,0.5,1.1,0.7L73,249l-1.7,5.5
	l-1.3-0.4c-0.5-0.2-1-0.2-1.3-0.1s-0.5,0.4-0.6,0.7c-0.1,0.3-0.1,0.6,0.1,0.9c0.2,0.3,0.5,0.5,1.1,0.7l6.8,2.1c0.5,0.2,1,0.2,1.3,0
	s0.5-0.4,0.6-0.7c0.1-0.3,0.1-0.6-0.1-0.9s-0.5-0.5-1.1-0.7l-3.2-1l1.1-3.4c1.2-0.5,2.2-0.8,2.9-1s1.3-0.2,1.6-0.1
	c0.2,0.1,0.5,0.3,0.7,0.7c0.2,0.4,0.5,0.6,0.8,0.7c0.3,0.1,0.6,0.1,0.9-0.1C81.7,251.8,81.9,251.5,82.1,251.2L82.1,251.2z"/>
<path class="st0" d="M91,250.7c-0.6-0.1-1.2-0.1-1.8,0s-1.2,0.3-1.9,0.6l0.8-5.2l-2.7-0.4c-0.6-0.1-1,0-1.2,0.1s-0.4,0.4-0.5,0.8
	c-0.1,0.4,0,0.6,0.2,0.9c0.2,0.2,0.6,0.4,1.2,0.5l0.4,0.1l-1.6,10.1l-0.4-0.1c-0.6-0.1-1,0-1.2,0.1c-0.3,0.2-0.4,0.4-0.5,0.8
	c-0.1,0.4,0,0.6,0.2,0.9c0.2,0.2,0.6,0.4,1.2,0.5l2.7,0.4l0.1-0.6c0.5,0.4,1,0.7,1.6,1c0.6,0.2,1.1,0.4,1.8,0.5
	c1.8,0.3,3.2,0,4.5-0.9s2-2,2.2-3.5c0.2-1.6-0.1-3-1.1-4.3S92.6,250.9,91,250.7L91,250.7z M93.6,257c-0.1,0.8-0.5,1.5-1.2,1.9
	s-1.6,0.6-2.7,0.4s-1.9-0.6-2.4-1.2c-0.5-0.6-0.7-1.4-0.6-2.3c0.2-0.9,0.6-1.7,1.4-2.3s1.7-0.8,2.6-0.6c1,0.1,1.8,0.6,2.3,1.4
	S93.7,256,93.6,257z"/>
<path class="st0" d="M108.4,260.2l-2.8,0l0.1-8.1l-4.3-0.1c-0.6,0-1,0.1-1.2,0.3c-0.2,0.2-0.4,0.5-0.4,0.8c0,0.4,0.1,0.6,0.4,0.9
	c0.2,0.2,0.6,0.3,1.2,0.4l1.9,0l-0.1,5.7l-2.8,0c-0.6,0-1,0.1-1.2,0.3c-0.2,0.2-0.4,0.5-0.4,0.8c0,0.4,0.1,0.6,0.3,0.9
	c0.2,0.2,0.6,0.3,1.2,0.4l8,0.1c0.6,0,1-0.1,1.2-0.3c0.2-0.2,0.4-0.5,0.4-0.8c0-0.4-0.1-0.6-0.3-0.9
	C109.4,260.3,109,260.2,108.4,260.2L108.4,260.2z"/>
<rect x="102.8" y="247.4" transform="matrix(1.640540e-02 -0.9999 0.9999 1.640540e-02 -146.4249 348.6826)" class="st0" width="2.5" height="2.8"/>
<path class="st0" d="M125.1,258.2l-0.7-4.4c-0.2-1.1-0.6-2-1.4-2.6c-0.9-0.7-2.1-1-3.5-0.8c-0.6,0.1-1.1,0.3-1.6,0.5
	c-0.5,0.3-0.9,0.6-1.3,1l-0.1-0.8l-2.2,0.3c-0.6,0.1-0.9,0.2-1.2,0.5c-0.2,0.2-0.3,0.6-0.2,0.9c0.1,0.3,0.2,0.6,0.5,0.8
	s0.7,0.2,1.1,0.2l0.8,5.7c-0.6,0.1-1,0.2-1.2,0.4c-0.3,0.3-0.5,0.6-0.4,1.1c0.1,0.4,0.2,0.6,0.5,0.8s0.7,0.2,1.2,0.1l2.7-0.4
	c0.6-0.1,0.9-0.2,1.2-0.5c0.2-0.2,0.3-0.5,0.2-0.9c-0.1-0.4-0.3-0.8-0.7-0.9c-0.2-0.1-0.6-0.1-1.2,0l-0.7-4.4c0.5-0.8,1-1.3,1.3-1.6
	s0.8-0.4,1.4-0.5c0.7-0.1,1.3,0,1.7,0.2c0.3,0.2,0.5,0.6,0.6,1.1l0.7,4.4c-0.5,0.1-0.8,0.2-1.1,0.5c-0.2,0.2-0.3,0.5-0.2,0.9
	c0.1,0.4,0.2,0.6,0.5,0.8c0.3,0.2,0.7,0.2,1.2,0.1l2.1-0.3c0.6-0.1,0.9-0.2,1.2-0.5c0.2-0.2,0.3-0.5,0.2-0.9
	c-0.1-0.4-0.2-0.6-0.5-0.8C125.9,258.2,125.5,258.2,125.1,258.2L125.1,258.2z"/>
<path class="st0" d="M142.1,253.7c-0.3-0.1-0.7-0.1-1.2,0.1l-0.4,0.1l-3.7-12l-2.6,0.8c-0.5,0.2-0.9,0.4-1.1,0.7
	c-0.2,0.3-0.2,0.6-0.1,0.9c0.1,0.3,0.3,0.6,0.6,0.7s0.7,0.1,1.3-0.1l0.4-0.1l0.9,2.8c-0.7-0.2-1.3-0.3-1.9-0.3s-1.2,0.1-1.8,0.3
	c-1.6,0.5-2.7,1.4-3.5,2.9s-0.9,2.9-0.4,4.4c0.4,1.5,1.4,2.5,2.7,3.2s2.9,0.7,4.6,0.2c0.6-0.2,1.2-0.4,1.7-0.8
	c0.5-0.3,1-0.7,1.4-1.2l0.2,0.5l2.6-0.8c0.5-0.2,0.9-0.4,1.1-0.7c0.2-0.3,0.2-0.6,0.1-0.9C142.6,254.1,142.4,253.9,142.1,253.7
	L142.1,253.7z M137.2,254.4c-0.4,0.7-1.2,1.2-2.2,1.6c-1.1,0.3-2,0.3-2.7,0s-1.3-0.9-1.5-1.8c-0.3-0.9-0.2-1.8,0.2-2.6
	s1.1-1.4,2.1-1.7c0.9-0.3,1.9-0.2,2.7,0.2c0.9,0.4,1.4,1.1,1.7,2.1C137.7,252.9,137.6,253.7,137.2,254.4L137.2,254.4z"/>
<path class="st0" d="M154.6,247.8c-0.3-0.1-0.7,0-1.2,0.2l-2.6,1.2l-3.6-7.3l-3.8,1.9c-0.5,0.2-0.8,0.5-0.9,0.8s-0.1,0.6,0.1,0.9
	c0.2,0.3,0.4,0.5,0.7,0.6s0.7,0,1.2-0.2l1.7-0.8l2.5,5.2l-2.6,1.2c-0.5,0.2-0.8,0.5-0.9,0.8s-0.1,0.6,0.1,0.9
	c0.2,0.3,0.4,0.5,0.7,0.6s0.7,0,1.2-0.2l7.2-3.5c0.5-0.2,0.8-0.5,0.9-0.8s0.1-0.6-0.1-0.9C155.1,248.1,154.9,247.9,154.6,247.8
	L154.6,247.8z"/>
<rect x="142.9" y="238.6" transform="matrix(0.8984 -0.4392 0.4392 0.8984 -90.6647 87.7174)" class="st0" width="2.8" height="2.5"/>
<path class="st0" d="M168.4,238.7c-0.3,0-0.7,0.1-1.1,0.4l-2.5-3.6c-0.6-0.9-1.4-1.5-2.4-1.7c-1.2-0.2-2.3,0-3.5,0.8
	c-0.5,0.4-0.9,0.7-1.2,1.2c-0.3,0.4-0.6,0.9-0.7,1.5l-0.4-0.6l-1.9,1.3c-0.5,0.3-0.7,0.6-0.8,1c-0.1,0.3,0,0.6,0.2,0.9
	c0.2,0.3,0.5,0.4,0.8,0.5c0.3,0.1,0.7-0.1,1.1-0.4l3.3,4.7c-0.5,0.4-0.8,0.6-0.9,0.8c-0.2,0.4-0.1,0.8,0.1,1.1
	c0.2,0.3,0.5,0.5,0.8,0.5c0.3,0,0.7-0.1,1.2-0.4l2.2-1.5c0.5-0.3,0.7-0.6,0.8-1c0.1-0.3,0-0.6-0.2-0.9c-0.2-0.4-0.6-0.5-1-0.5
	c-0.2,0-0.6,0.2-1.1,0.5l-2.5-3.6c0.1-0.9,0.3-1.6,0.5-2s0.6-0.8,1-1.1c0.6-0.4,1.1-0.6,1.6-0.6c0.4,0,0.7,0.3,1,0.7l2.6,3.7
	c-0.4,0.3-0.6,0.6-0.7,0.9c-0.1,0.3,0,0.6,0.2,0.9c0.2,0.3,0.5,0.5,0.8,0.5c0.3,0,0.7-0.1,1.2-0.4l1.8-1.2c0.5-0.3,0.7-0.6,0.8-1
	c0.1-0.3,0-0.6-0.2-0.9C169,238.9,168.8,238.7,168.4,238.7L168.4,238.7z"/>
<path class="st0" d="M180.9,230.7l-5.9-6.2l0.3-0.3c0.4-0.4,0.6-0.8,0.7-1.1s-0.1-0.6-0.3-0.9s-0.5-0.4-0.9-0.4
	c-0.3,0-0.7,0.2-1.1,0.6l-2,1.9l0.5,0.5c-0.6,0.1-1.2,0.2-1.7,0.5c-0.5,0.2-1,0.6-1.4,1c-1.2,1.1-1.8,2.4-1.8,3.9
	c-0.1,1.5,0.5,2.9,1.6,4c1.1,1.1,2.4,1.7,3.9,1.8c1.5,0,2.9-0.5,4-1.6c0.4-0.4,0.8-0.8,1-1.3c0.3-0.5,0.5-1.1,0.6-1.6l0.8,0.8
	c0.4,0.4,0.6,0.9,0.6,1.5c0,0.6-0.3,1.1-0.8,1.6l-1.9,1.8c-0.4,0.4-0.6,0.8-0.7,1.1s0.1,0.6,0.3,0.9c0.2,0.2,0.5,0.4,0.9,0.4
	s0.7-0.2,1.1-0.6l1.9-1.8c0.7-0.6,1.1-1.4,1.3-2.2c0.2-0.8,0.2-1.6,0.1-2.3S181.4,231.3,180.9,230.7L180.9,230.7z M175,232.8
	c-0.6,0.6-1.4,0.9-2.3,0.9c-0.9,0-1.7-0.4-2.3-1c-0.6-0.6-0.9-1.4-0.9-2.3c0-0.9,0.4-1.7,1-2.3c0.6-0.6,1.4-0.9,2.3-0.9
	s1.7,0.4,2.2,1c0.6,0.6,0.9,1.4,0.9,2.3S175.7,232.2,175,232.8z"/>
<path class="st0" d="M148.9,94.8c7.3-0.3,13.8-0.6,19.3-0.8c-0.5-10.7-0.8-21.5-0.8-32.2c0-16.4,0.6-34.3,1.8-53.6
	c-9.9,0.3-17.4,0.5-22.6,0.5l-2.3,1.3l-2.8,9.9l8.6-0.1C150.6,46.2,150.1,71.2,148.9,94.8L148.9,94.8z"/>
<path class="st0" d="M203.4,46.1c5.9-3.9,11.8-5.9,17.5-5.9c3.4,0,6.1,1.4,8.1,4.1c1.8,2.4,2.8,5.6,2.8,9.5c0.1,5,0,11.5-0.4,19.5
	c-0.3,9.5-0.5,16.1-0.5,19.7l1.6,1.4c4.7-0.3,10.3-0.6,16.8-0.9c-0.3-4.7-0.6-9-0.6-12.8c0-3.6,0.1-8.9,0.2-16
	c0.1-7,0.1-12.4,0.1-16c-0.2-13.2-7.4-19.9-21.7-19.9c-10.2,0-19,1.9-26.4,5.5c-6.2-2.1-10.3-3.1-12.2-3.1c-0.8,0-2,0.4-3.7,1.3
	c0.6,8.7,0.9,16.4,1,23c0.2,7.9-0.1,20.8-0.9,38.8c5.8-0.4,11.6-0.7,17.3-0.9l1.4-1.2C203,79.7,202.9,64.2,203.4,46.1L203.4,46.1z"
	/>
<path class="st0" d="M298.9,107.4c-1.3,0.4-2.8,0.6-4.6,0.6c-7.8,0-15.8-2.6-23.9-7.9l-0.8,15.2c3.5,1.5,8.5,2.6,14.8,3.3
	c5.1,0.5,9.5,0.7,13.3,0.6c3.4-0.2,7.2-1.1,11.3-2.8c3.8-1.6,6.6-3.2,8.5-5c5.3-5.2,8.1-11.4,8.4-18.7c0.4-13.9,0.6-23.1,0.5-27.6
	c0-9.6,0-17.2,0.1-22.8c-0.2-5.2-2.4-8.7-6.6-10.6c-3.1-1.4-8.3-2.1-15.7-2.1c-12.8,0-23.1,3.1-30.8,9.4c-8.4,6.7-12.4,16.2-12,28.4
	c0.3,8.4,3.1,15.3,8.4,20.8c5.6,5.7,12.9,8.5,22,8.5c5.7,0,11.5-1.5,17.5-4.4C309.1,100.3,305.6,105.3,298.9,107.4L298.9,107.4z
	 M309.2,79.9c-4.5,3.3-9.2,5-14.2,5s-8.8-1.7-11.6-5.2c-2.7-3.2-4.1-7.5-4.2-13c-0.3-8.5,1.7-15.1,6.2-19.7s10.8-6.8,18.9-6.3
	c1.4,0.1,2.5,0.6,3.5,1.4c1,0.9,1.4,1.7,1.4,2.5C309.4,57.1,309.4,68.9,309.2,79.9L309.2,79.9z"/>
<path class="st0" d="M364.1,94.1c-0.3-7.3-0.5-14.1-0.5-20.5c0-7.4,0.5-13.1,1.4-17.2c1.5-6.2,4.5-10.6,8.9-13.3
	c2.2-1.5,4.8-2.5,7.6-3c0.4-0.1,3.3-0.5,8.5-1.3c1.5-5.9,2.7-10.3,3.5-13c-2.4-0.4-4-0.6-4.8-0.6c-4.3,0-8.8,1.3-13.5,3.9
	c-4.2,2.3-8,5.3-11.2,8.9l0.4-9.4c-8.7,1.6-14.8,2.8-18.4,3.6c0.7,8,1,12.7,1,14.2c0.3,9.2,0,25.4-0.9,48.5
	C353.9,94.4,359.9,94.2,364.1,94.1L364.1,94.1z"/>
<path class="st0" d="M404,11.3c-0.2,0.6-1,3.9-2.3,9.9c6.3-0.9,10.5-1.4,12.8-1.7l1.8-1.5l7.9-17c-8.9,0.4-15.2,0.7-18.8,0.9
	C405.1,4.8,404.6,8,404,11.3L404,11.3z"/>
<path class="st0" d="M500,0c-7.6,1.6-13.9,2.9-18.8,3.7c0.7,8.2,1,16.6,0.8,25.1c-2-0.1-3.8-0.1-5.5-0.1c-13.5,0-24.2,3-32.2,8.9
	c-8.9,6.5-13.1,15.9-12.8,28.1c0.3,8.5,3.1,15.5,8.5,21c5.8,5.8,13.4,8.7,22.8,8.7c6.1,0,12.7-1.8,19.7-5.5c2.4,0.9,4.9,1.7,7.4,2.6
	c2.5,0.9,5.1,1.4,7.9,1.5l1.7-1.7c-0.7-8.8-1-18.4-1-28.9C498.2,42.4,498.8,21.2,500,0L500,0z M480.9,78.5c-4.7,3.4-9.7,5.2-15,5.2
	s-9.2-1.8-12.2-5.4c-2.8-3.3-4.3-7.7-4.5-13.2c-0.3-8.3,2.1-14.7,7-19.2c4.6-4.4,11.3-6.6,20.1-6.6c1.3,0,3,0,5,0.1
	C481.4,53.5,481.3,66.6,480.9,78.5L480.9,78.5z"/>
<path class="st0" d="M138.8,116.3c-8.5,0.3-14.3,0.5-17.3,0.5l-1.7,1.2c-5,8.8-12,20.6-21.1,35.2c-10.3-17.9-16.8-29.7-19.6-35.6
	l-1.9-0.8c-8.3,0.3-14.7,0.6-19.2,0.6c9.8,15.4,19.8,32.1,29.9,50c0.3,2.3,0.4,5.2,0.4,8.8c0,5.9-0.4,15-1.3,27.3
	c10.3-0.6,16.3-0.9,18-1l1.4-1.3c-0.4-9.6-0.4-21.3,0-34.9C120.5,144.3,131.3,127.6,138.8,116.3L138.8,116.3z"/>
<path class="st0" d="M191.2,140.2c-3.1-1.4-8.3-2.1-15.7-2.1c-12.8,0-23.1,3.1-30.8,9.3c-8.4,6.6-12.4,15.9-12,27.8
	c0.3,8.3,3.1,15.2,8.4,20.5c5.6,5.7,12.9,8.5,22,8.5c5.8,0,12.1-1.9,18.8-5.5c2.2,1.1,4.5,2.2,6.7,3.2c2.2,1,4.9,1.6,8,1.8l0.9-2.4
	c-0.1-2.1-0.1-10.6-0.1-25.6c0-2.3,0.1-7.1,0.3-14.4c0.1-6.6,0.1-10.2,0.1-10.9C197.6,145.5,195.4,142,191.2,140.2L191.2,140.2z
	 M179.9,187.5c-4.5,3.4-9.1,5-13.8,5s-8.7-1.6-11.5-4.9c-2.8-3.3-4.2-7.6-4.4-13c-0.3-8.3,1.7-14.8,6.2-19.4
	c4.5-4.6,10.8-6.7,18.9-6.2c1.4,0,2.5,0.4,3.5,1.4c0.9,0.9,1.4,1.7,1.4,2.4C180.4,156.7,180.3,168.3,179.9,187.5L179.9,187.5z"/>
<path class="st0" d="M255.9,168.2c-2.5-1.4-8.4-3.3-17.8-5.7c-6.4-1.6-9.6-4.1-9.7-7.5c-0.1-2.3,1.4-4.2,4.5-5.5
	c2.6-1.1,5.6-1.7,9.1-1.7c4.7,0,10.3,1.5,16.8,4.4c0.6-5.8,1-9.8,1.3-11.9l-0.9-1.2c-4.7-1.5-9.7-2.2-14.9-2.2c-8.7,0-16,1.4-22,4.2
	c-8.1,3.7-12,9.4-11.7,17c0.2,6.3,3.2,10.9,9.1,13.9c1,0.5,6.5,2.3,16.4,5.3c5.8,1.8,8.8,4.3,8.9,7.5c0.2,3.4-1.9,6-6.3,8
	c-3.7,1.6-7.9,2.4-12.5,2.4c-2.3,0-5.2-0.3-8.5-1c-2.8-0.6-5.6-1.2-8.4-1.8c-1.4,5.6-2.2,9.3-2.6,11.2l0.9,1.4
	c5.1,1.4,9.5,2.1,13.4,2.1c14.9,0,26-2.9,33.5-8.6c6.5-5.1,9.7-10.6,9.5-16.5C263.8,175.9,261.1,171.2,255.9,168.2L255.9,168.2z"/>
<path class="st0" d="M320.5,138.8L319,140c0.3,8.9,0.5,17.3,0.5,25.1c0,2.7-0.1,6.3-0.3,10.8c-0.3,5.6-0.4,9.1-0.5,10.7
	c-6.5,4.4-12.1,6.6-17,6.6c-3.4,0-6.1-1.3-7.9-3.9s-2.8-5.8-2.9-9.8c-0.1-3.4,0-8.9,0.1-16.5c0.1-2.2,0.4-6.2,1-11.9
	c0.6-5.2,0.9-9.3,0.8-12.4l-1.5-1.3c-6.4,0.6-11.9,1-16.5,1.3l-1.4,1.2c0.5,19.9,0.6,34.8,0.4,44.7c0.3,13.1,7.5,19.7,21.8,19.7
	c8.3,0,16.8-2.1,25.4-6.4c4.4,2.4,6.7,3.6,6.8,3.7c2.3,1.1,4.9,1.8,7.9,2.1l1.7-1.9c-1-15.2-0.8-36.7,0.4-64.3
	C327.4,138.3,321.7,138.7,320.5,138.8L320.5,138.8z"/>
<path class="st0" d="M398.8,30.9c0.9,7.8,1.3,16.3,1.3,25.5c0,6.2-0.2,13.5-0.7,22c-0.1,1.3,1.5,2,2.5,1.1l13.9-13.9
	c0.3-0.3,0.4-0.6,0.4-1c0.1-11.6,0.6-23.5,1.5-35.7l-2.1-1C411.2,28.9,405.5,29.9,398.8,30.9z"/>
<path class="st0" d="M416.3,79.7c0-1.3-1.6-1.9-2.5-1l-14.6,14.6c-0.3,0.3-0.4,0.6-0.4,1l-0.1,29.9c0.1,2.9,0.1,5.9,0.1,8.9
	c0,1.4,0,2.8,0,4.1c-2-0.1-3.8-0.1-5.5-0.1c-13.5,0-24.2,3-32.2,8.9c-8.9,6.5-13.1,15.9-12.8,28.1c0.3,8.5,3.1,15.5,8.5,21
	c5.8,5.8,13.4,8.7,22.8,8.7c6.1,0,12.7-1.9,19.7-5.5c2.4,0.9,4.9,1.7,7.4,2.6c2.5,0.9,5.1,1.4,7.9,1.5l1.7-1.7
	c-0.7-8.8-1-18.4-1-28.9c0-12.9,0.1-25.8,0.6-38.7L416.3,79.7L416.3,79.7z M397.8,186.9c-4.7,3.4-9.7,5.2-15,5.2s-9.2-1.8-12.2-5.4
	c-2.8-3.4-4.3-7.7-4.5-13.1c-0.3-8.3,2.1-14.7,7-19.2c4.6-4.4,11.3-6.6,20.1-6.6c1.3,0,3,0,5,0.1C398.3,161.9,398.2,175,397.8,186.9
	L397.8,186.9z"/>
<path class="st0" d="M486.4,140.2c-3.1-1.4-8.3-2.1-15.7-2.1c-12.8,0-23.1,3.1-30.8,9.3c-8.4,6.6-12.4,15.9-12,27.8
	c0.3,8.3,3.1,15.2,8.4,20.5c5.6,5.7,12.9,8.5,22,8.5c5.8,0,12.1-1.9,18.8-5.5c2.2,1.1,4.5,2.2,6.7,3.2c2.2,1,4.9,1.6,8,1.8l0.9-2.4
	c-0.1-2.1-0.1-10.6-0.1-25.6c0-2.3,0.1-7.1,0.3-14.4c0.1-6.6,0.1-10.2,0.1-10.9C492.8,145.5,490.6,142,486.4,140.2L486.4,140.2z
	 M475.2,187.5c-4.5,3.4-9.1,5-13.8,5s-8.7-1.6-11.5-4.9c-2.8-3.3-4.2-7.6-4.4-13c-0.3-8.3,1.7-14.8,6.2-19.4
	c4.5-4.6,10.8-6.7,18.9-6.2c1.4,0,2.5,0.4,3.5,1.4c1,0.9,1.4,1.7,1.4,2.4C475.6,156.7,475.5,168.3,475.2,187.5L475.2,187.5z"/>
<path class="st0" d="M28.8,221.2c-1.6,0-2.9,1.3-2.9,2.9s1.3,2.9,2.9,2.9s2.9-1.3,2.9-2.9S30.4,221.2,28.8,221.2z"/>
<path class="st0" d="M6.7,141.1c0,1.6,1.3,2.9,2.9,2.9s2.9-1.3,2.9-2.9s-1.3-2.9-2.9-2.9S6.7,139.5,6.7,141.1z"/>
</svg>
