<?xml version="1.0" encoding="UTF-8"?><svg id="Laag_2" xmlns="http://www.w3.org/2000/svg" viewBox="0 0 497.39 310.4"><defs><style>.cls-1{fill:#fff;}.cls-2{fill:#7d7da0;}</style></defs><g id="Laag_1-2"><g><path class="cls-1" d="M0,184.8V30H24.8l4.8,10.2c2.53-2,5.33-3.9,8.4-5.7,3.07-1.8,6.4-3.27,10-4.4,3.6-1.13,7.4-1.7,11.4-1.7,6.53,0,12.23,1.27,17.1,3.8,4.87,2.53,8.83,6.2,11.9,11,3.07,4.8,5.33,10.63,6.8,17.5,1.46,6.87,2.2,14.57,2.2,23.1,0,11.47-1.13,21.33-3.4,29.6-2.27,8.27-6.17,14.57-11.7,18.9-5.53,4.33-13.17,6.5-22.9,6.5-5.07,0-10.23-.6-15.5-1.8-5.27-1.2-10.03-2.93-14.3-5.2v53H0ZM49.8,114.4c3.07,0,6-.83,8.8-2.5,2.8-1.67,5.03-4.7,6.7-9.1,1.67-4.4,2.5-10.73,2.5-19s-.77-14.3-2.3-18.9c-1.53-4.6-3.63-7.87-6.3-9.8-2.67-1.93-5.8-2.9-9.4-2.9-4.13,0-7.93,.67-11.4,2-3.47,1.33-6.4,2.67-8.8,4v51c2.67,1.6,5.8,2.87,9.4,3.8,3.6,.93,7.2,1.4,10.8,1.4Z"/><path class="cls-1" d="M163,138.4c-8.8,0-16.33-.9-22.6-2.7-6.27-1.8-11.37-4.83-15.3-9.1-3.93-4.27-6.8-9.93-8.6-17-1.8-7.07-2.7-15.8-2.7-26.2,0-10.93,.9-19.97,2.7-27.1,1.8-7.13,4.67-12.73,8.6-16.8,3.93-4.07,9.07-6.93,15.4-8.6,6.33-1.67,13.83-2.5,22.5-2.5s16.53,.87,22.8,2.6c6.27,1.73,11.37,4.63,15.3,8.7,3.93,4.07,6.8,9.67,8.6,16.8,1.8,7.13,2.7,16.1,2.7,26.9s-.87,19.57-2.6,26.7c-1.73,7.13-4.54,12.77-8.4,16.9-3.87,4.13-8.97,7.07-15.3,8.8-6.33,1.73-14.03,2.6-23.1,2.6Zm0-23.6c3.6,0,6.63-.33,9.1-1,2.47-.67,4.47-2.03,6-4.1,1.53-2.07,2.7-5.23,3.5-9.5,.8-4.27,1.2-9.87,1.2-16.8s-.4-12.7-1.2-16.9c-.8-4.2-1.97-7.33-3.5-9.4-1.53-2.07-3.53-3.43-6-4.1-2.47-.67-5.5-1-9.1-1s-6.43,.33-8.9,1c-2.47,.67-4.5,2.03-6.1,4.1-1.6,2.07-2.77,5.2-3.5,9.4-.73,4.2-1.1,9.83-1.1,16.9s.37,12.53,1.1,16.8c.73,4.27,1.9,7.43,3.5,9.5,1.6,2.07,3.63,3.43,6.1,4.1,2.47,.67,5.43,1,8.9,1Z"/><path class="cls-1" d="M232,137.4V30h22.8l6.8,16.4c3.87-4.93,8.23-9.13,13.1-12.6,4.87-3.47,10.63-5.2,17.3-5.2,1.47,0,2.97,.07,4.5,.2,1.53,.13,2.97,.4,4.3,.8v30.4c-2-.27-4.1-.5-6.3-.7-2.2-.2-4.3-.3-6.3-.3-3.87,0-7.37,.43-10.5,1.3-3.13,.87-6,2.13-8.6,3.8-2.6,1.67-5.1,3.83-7.5,6.5v66.8h-29.6Z"/><path class="cls-1" d="M359.39,137.4c-8.27,0-14.97-1.2-20.1-3.6-5.13-2.4-8.83-6.4-11.1-12-2.27-5.6-3.27-13.13-3-22.6l1-45.4h-16.8v-19l17.8-4.8,4-30h23.4V30h25.2v23.8h-25.2v45.2c0,2.93,.27,5.33,.8,7.2,.53,1.87,1.3,3.37,2.3,4.5,1,1.13,2.17,1.97,3.5,2.5,1.33,.53,2.67,.87,4,1l13.6,1.2v22h-19.4Z"/><path class="cls-1" d="M100.79,309.4v-83.6h-15.2v-19l15.2-4.8v-7.2c0-9.07,1.23-16.5,3.7-22.3,2.47-5.8,6.3-10.07,11.5-12.8,5.2-2.73,12.07-4.1,20.6-4.1,4.67,0,8.9,.33,12.7,1,3.8,.67,6.97,1.33,9.5,2v21.2h-16.4c-3.07,0-5.47,.47-7.2,1.4-1.73,.93-2.93,2.37-3.6,4.3-.67,1.93-1,4.5-1,7.7v8.8h27.2v23.8h-27.2v83.6h-29.8Z"/><path class="cls-1" d="M320.59,309.8c-7.6,0-13.9-1.23-18.9-3.7-5-2.47-8.7-6.27-11.1-11.4-2.4-5.13-3.6-11.77-3.6-19.9v-118h29.6v113.6c0,4,.4,7.17,1.2,9.5,.8,2.33,2.03,4.03,3.7,5.1,1.67,1.07,3.77,1.8,6.3,2.2l8.2,1.2v21.4h-15.4Z"/><path class="cls-1" d="M353.19,186.2c-2.8,0-4.2-1.33-4.2-4v-19.6c0-2.8,1.4-4.2,4.2-4.2h22.8c1.2,0,2.13,.4,2.8,1.2,.67,.8,1,1.8,1,3v19.6c0,2.67-1.27,4-3.8,4h-22.8Zm-3.6,123.2v-107.4h29.6v107.4h-29.6Z"/><path class="cls-1" d="M447.99,310.4c-8.8,0-16.33-.9-22.6-2.7-6.27-1.8-11.37-4.83-15.3-9.1-3.93-4.27-6.8-9.93-8.6-17-1.8-7.07-2.7-15.8-2.7-26.2,0-10.93,.9-19.97,2.7-27.1,1.8-7.13,4.67-12.73,8.6-16.8,3.93-4.07,9.07-6.93,15.4-8.6,6.33-1.67,13.83-2.5,22.5-2.5s16.53,.87,22.8,2.6c6.27,1.73,11.37,4.63,15.3,8.7,3.93,4.07,6.8,9.67,8.6,16.8,1.8,7.13,2.7,16.1,2.7,26.9s-.87,19.57-2.6,26.7c-1.73,7.13-4.53,12.77-8.4,16.9-3.87,4.13-8.97,7.07-15.3,8.8-6.33,1.73-14.03,2.6-23.1,2.6Zm0-23.6c3.6,0,6.63-.33,9.1-1,2.47-.67,4.47-2.03,6-4.1,1.53-2.07,2.7-5.23,3.5-9.5,.8-4.27,1.2-9.87,1.2-16.8s-.4-12.7-1.2-16.9c-.8-4.2-1.97-7.33-3.5-9.4-1.53-2.07-3.53-3.43-6-4.1-2.47-.67-5.5-1-9.1-1s-6.43,.33-8.9,1c-2.47,.67-4.5,2.03-6.1,4.1-1.6,2.07-2.77,5.2-3.5,9.4-.73,4.2-1.1,9.83-1.1,16.9s.37,12.53,1.1,16.8c.73,4.27,1.9,7.43,3.5,9.5,1.6,2.07,3.63,3.43,6.1,4.1,2.47,.67,5.43,1,8.9,1Z"/></g><path class="cls-2" d="M243.25,263.77c8.57-.16,17.31-2.92,23.56-8.78,6.25-5.87,9.61-15.08,7.36-23.35-2.25-8.27-10.69-14.77-19.2-13.69-8.59,1.09-14.67,8.64-19.8,15.61,.11-6.06,.21-12.21-1.28-18.09-1.49-5.88-4.77-11.56-10.01-14.61-5.24-3.05-12.59-2.82-16.82,1.52-5.6,5.75-3.74,15.15-1.51,22.86,1.77,6.11,2.85,12.17,2.62,18.52,.31-10.39-4.74-21.29-14.02-25.94-9.37-4.7-22.66-1.01-26.62,8.7-3.48,8.54,.9,18.65,7.93,24.62,7.03,5.97,20.15,8.72,28.99,11.33-9.01-1.73-22.75,3.76-26.3,12.21-3.55,8.45-.83,19.01,6.1,25.01,6.93,6,17.49,7.24,25.8,3.38,8.32-3.86,14.12-12.45,15.01-21.58,.02,9.9,5.15,19.83,13.65,24.88,8.51,5.05,20.19,4.6,27.8-1.73,7.61-6.33,10.06-18.35,4.89-26.79-5.65-9.22-17.51-12.05-28.14-14.07Zm-20.83,5.73c-4.96,0-8.98-4.02-8.98-8.98s4.02-8.98,8.98-8.98,8.98,4.02,8.98,8.98-4.02,8.98-8.98,8.98Z"/></g></svg>