<svg id="f8dc49a1-6b9e-4a66-b315-018efe8d466b" data-name="Laag 1" xmlns="http://www.w3.org/2000/svg" width="112" height="112.08" viewBox="0 0 112 112.08"><defs><style>.a685b3e0-3147-4a5f-88ed-497d47de14ad{fill:#fff;}</style></defs><title>logo-round_white</title><path class="a685b3e0-3147-4a5f-88ed-497d47de14ad" d="M37.1,35a6.78,6.78,0,0,0-4.82,6.11c-.31,3.82,2.89,7,7,7a6.85,6.85,0,0,0,3-.62A6.67,6.67,0,0,0,45,36.85,7.32,7.32,0,0,0,37.1,35Zm5.79,6.47a3.24,3.24,0,0,1-3.25,3.31A3.42,3.42,0,1,1,39.47,38,3.44,3.44,0,0,1,42.89,41.5Z" transform="translate(0 0.04)"/><path class="a685b3e0-3147-4a5f-88ed-497d47de14ad" d="M57,63.93a6.86,6.86,0,0,0,3-.63,6.66,6.66,0,0,0,2.63-10.67,7.34,7.34,0,0,0-7.86-1.82A6.8,6.8,0,0,0,50,56.92C49.69,60.75,52.89,63.91,57,63.93Zm.16-10.14a3.42,3.42,0,0,1,3.42,3.5,3.23,3.23,0,0,1-3.25,3.3,3.41,3.41,0,1,1-.17-6.8Z" transform="translate(0 0.04)"/><path class="a685b3e0-3147-4a5f-88ed-497d47de14ad" d="M74.85,48.14a6.85,6.85,0,0,0,3-.62A6.67,6.67,0,0,0,80.5,36.85,7.32,7.32,0,0,0,72.64,35a6.78,6.78,0,0,0-4.82,6.11C67.51,45,70.71,48.13,74.85,48.14ZM75,38a3.44,3.44,0,0,1,3.42,3.5,3.24,3.24,0,0,1-3.25,3.31A3.42,3.42,0,1,1,75,38Z" transform="translate(0 0.04)"/><path class="a685b3e0-3147-4a5f-88ed-497d47de14ad" d="M42.47,49.78a19,19,0,0,1-7,.69l-1.58,0c-.43,0-1.28,0-1.28,0h-.12l-.26,3.35c0,.16,0,.18,2.33.34l2.45.15,1.24,0a18.57,18.57,0,0,0,5.66-.81,12.16,12.16,0,0,0,3.26-1.57,10.17,10.17,0,0,0,4.17-6.21c0-.17.07-.34.1-.52.09-.51.15-1.76.18-2.58l3.9,5.56,3.36,0,.7-1,3.21-4.58c0,.8.09,2.22.19,2.77,0,.18.06.36.1.54A10.17,10.17,0,0,0,67.23,52a12.16,12.16,0,0,0,3.26,1.57,18.57,18.57,0,0,0,5.66.81l1.24,0,2.44-.15c2.35-.16,2.35-.19,2.34-.34l-.26-3.36h-.12l-1.28.05c-.53,0-1.06,0-1.58,0a18.74,18.74,0,0,1-7-.68,8.44,8.44,0,0,1-4.79-4.19,6.16,6.16,0,0,1-.42-1.23,17.57,17.57,0,0,1-.35-3l0-.32c-.11-1.76-.21-6.36-.21-6.41v-.12H62.87L57.22,43.7,51.5,34.55H48.27v.17c0,.53-.11,4.7-.21,6.35l0,.32a17.56,17.56,0,0,1-.35,3,6.67,6.67,0,0,1-.42,1.21A8.42,8.42,0,0,1,42.47,49.78Z" transform="translate(0 0.04)"/><path class="a685b3e0-3147-4a5f-88ed-497d47de14ad" d="M42.33,66.85a6.86,6.86,0,0,0-3-.63c-4.14,0-7.34,3.18-7,7a6.78,6.78,0,0,0,4.82,6.11A7.32,7.32,0,0,0,45,77.52,6.67,6.67,0,0,0,42.33,66.85Zm-2.86,9.51a3.41,3.41,0,1,1,.17-6.8,3.23,3.23,0,0,1,3.25,3.3A3.42,3.42,0,0,1,39.47,76.36Z" transform="translate(0 0.04)"/><path class="a685b3e0-3147-4a5f-88ed-497d47de14ad" d="M72.64,79.34a7.32,7.32,0,0,0,7.86-1.82,6.67,6.67,0,0,0-2.63-10.67,6.86,6.86,0,0,0-3-.63c-4.14,0-7.34,3.18-7,7A6.78,6.78,0,0,0,72.64,79.34Zm2.54-9.78a3.23,3.23,0,0,1,3.25,3.3A3.42,3.42,0,0,1,75,76.36a3.41,3.41,0,1,1,.17-6.8Z" transform="translate(0 0.04)"/><path class="a685b3e0-3147-4a5f-88ed-497d47de14ad" d="M47.68,70A17.56,17.56,0,0,1,48,73l0,.32c.1,1.65.2,5.82.21,6.35v.17H51.5l5.72-9.15,5.65,9h3.24v-.11s.1-4.65.21-6.41l0-.32a17.56,17.56,0,0,1,.35-3,5.87,5.87,0,0,1,.42-1.22,8.41,8.41,0,0,1,4.79-4.19,19,19,0,0,1,7-.69l1.58,0c.42,0,1.27,0,1.28,0h.12l.26-3.36c0-.15,0-.17-2.34-.33l-2.44-.15-1.24,0a18.57,18.57,0,0,0-5.66.81,11.87,11.87,0,0,0-3.26,1.57,10.15,10.15,0,0,0-4.17,6.18c0,.18-.07.36-.1.55-.1.55-.16,2-.19,2.76l-3.21-4.58-.7-1-3.36,0-3.9,5.56c0-.82-.09-2.07-.18-2.59,0-.17-.06-.34-.1-.52a10.15,10.15,0,0,0-4.17-6.2,11.59,11.59,0,0,0-3.26-1.57,18.57,18.57,0,0,0-5.66-.82l-1.24,0-2.45.15c-2.34.16-2.34.19-2.33.34L32.47,64h.12s.85,0,1.28,0l1.58,0a18.55,18.55,0,0,1,7,.69,8.37,8.37,0,0,1,4.79,4.19A6.77,6.77,0,0,1,47.68,70Z" transform="translate(0 0.04)"/><path class="a685b3e0-3147-4a5f-88ed-497d47de14ad" d="M4.79,63.27a3.08,3.08,0,0,0,1-1.21A3.49,3.49,0,0,0,6.1,60.4a3.43,3.43,0,0,0-.5-1.6,3,3,0,0,0-1.15-1.08,2.89,2.89,0,0,0-1-.29,2.64,2.64,0,0,0-.63,0,3.4,3.4,0,0,0-.46.06,3,3,0,0,0-1.08.45,2.85,2.85,0,0,0-1,1.21A3.36,3.36,0,0,0,0,60.78a3.47,3.47,0,0,0,.5,1.61,2.49,2.49,0,0,0,.6.69,2.4,2.4,0,0,0,.56.38,2.83,2.83,0,0,0,1.11.31,3.65,3.65,0,0,0,.47,0,4,4,0,0,0,.62-.1,2.61,2.61,0,0,0,.67-.27A2,2,0,0,0,4.79,63.27Zm-1-.7a2.61,2.61,0,0,1-.57.1,3,3,0,0,1-.52,0,2.62,2.62,0,0,1-.56-.18,2.18,2.18,0,0,1-.92-2.83,1.84,1.84,0,0,1,.7-.79,1.91,1.91,0,0,1,.54-.25,2.09,2.09,0,0,1,.51-.09,2.13,2.13,0,0,1,.57,0,1.8,1.8,0,0,1,.51.17,1.85,1.85,0,0,1,.79.7,2.25,2.25,0,0,1,.13,2.12,2,2,0,0,1-.69.79A2.47,2.47,0,0,1,3.75,62.57Z" transform="translate(0 0.04)"/><polygon class="a685b3e0-3147-4a5f-88ed-497d47de14ad" points="3.55 54.64 5.9 54.86 6 53.77 3.61 53.54 2.53 53.44 2.01 53.39 2.56 53.02 3.72 52.25 5.64 50.97 6.32 50.52 6.4 49.62 4.06 49.4 4.06 49.4 2.97 49.29 0.51 49.05 0.4 50.14 2.83 50.37 3.91 50.48 4.39 50.52 3.86 50.88 2.68 51.66 0.09 53.39 0 54.29 2.47 54.53 3.55 54.64"/><polygon class="a685b3e0-3147-4a5f-88ed-497d47de14ad" points="2.37 44.45 3.81 44.8 4.88 45.06 7.22 45.63 7.48 44.56 5.15 44 4.07 43.74 2.63 43.39 3.09 41.48 2.19 41.26 1 46.15 1.91 46.37 2.37 44.45"/><path class="a685b3e0-3147-4a5f-88ed-497d47de14ad" d="M4.51,39.46a1.41,1.41,0,0,0,.79.1.61.61,0,0,0,.18-.05A1.75,1.75,0,0,0,6.21,39a7.83,7.83,0,0,0,.69-.91c.08-.11.16-.21.22-.31l.25-.32a1.16,1.16,0,0,1,.41-.34.51.51,0,0,1,.45,0,.63.63,0,0,1,.41.5,2,2,0,0,1-.15,1,3.21,3.21,0,0,1-.55.92,3.1,3.1,0,0,1-.76.67l.66.66a2.79,2.79,0,0,0,.85-.76,4.45,4.45,0,0,0,.65-1.17c.05-.13.09-.27.13-.39a3.13,3.13,0,0,0,.12-.93,1.78,1.78,0,0,0-.31-1,1.51,1.51,0,0,0-.73-.56A1.71,1.71,0,0,0,8,36H7.88a.94.94,0,0,0-.29.06,1.84,1.84,0,0,0-.73.5,7.43,7.43,0,0,0-.68.9L6,37.75c-.09.12-.17.23-.24.31a1.37,1.37,0,0,1-.4.34.5.5,0,0,1-.46,0,.67.67,0,0,1-.43-.5,1.75,1.75,0,0,1,.14-1A3.14,3.14,0,0,1,5,36.21a3,3,0,0,1,.61-.63L4.9,35a2.9,2.9,0,0,0-.68.71,4.28,4.28,0,0,0-.51.94,3.22,3.22,0,0,0-.25,1.32,1.87,1.87,0,0,0,.31,1A1.58,1.58,0,0,0,4.51,39.46Z" transform="translate(0 0.04)"/><path class="a685b3e0-3147-4a5f-88ed-497d47de14ad" d="M9.07,33.39l1.83,1,.22.12,0-.06.5-.91-1.5-.82.65-1.17a3.34,3.34,0,0,0,.42-1.3,2.23,2.23,0,0,0-.05-.69,1.75,1.75,0,0,0-.17-.43,1.72,1.72,0,0,0-.52-.59,2,2,0,0,0-.32-.22A2,2,0,0,0,9,28.06,1.92,1.92,0,0,0,8,28.47a3.46,3.46,0,0,0-.87,1.06L5.93,31.66l2.16,1.19ZM7.89,30a1.73,1.73,0,0,1,.8-.81,1.06,1.06,0,0,1,.94.09,1.55,1.55,0,0,1,.28.2,1,1,0,0,1,.31.55,1.74,1.74,0,0,1-.26,1.1l-.62,1.13-.75-.41-1.32-.72Z" transform="translate(0 0.04)"/><path class="a685b3e0-3147-4a5f-88ed-497d47de14ad" d="M12.92,26.87l1.24,2.23.67-.91-.74-1.29,1.77-2.37,1.45.34L18,24v0h0l-2.46-.54-1.21-.27-2.65-.58-.65.87,1.31,2.35ZM13.63,24l1.19.28.13,0-1.33,1.79L13.55,26l-.61-1.06-.73-1.26Z" transform="translate(0 0.04)"/><polygon class="a685b3e0-3147-4a5f-88ed-497d47de14ad" points="16.96 20.07 17.74 20.86 19.35 22.5 20.13 21.74 18.49 20.07 17.71 19.28 17.32 18.88 18.02 18.96 19.43 19.11 22.46 19.45 23.11 18.81 21.5 17.17 20.72 16.38 19.86 15.51 18.95 14.59 18.35 15.18 18.17 15.36 19.91 17.12 20.69 17.91 20.99 18.21 20.43 18.15 18.99 17.99 15.84 17.65 15.39 18.09 15.2 18.28 16.38 19.48 16.96 20.07"/><polygon class="a685b3e0-3147-4a5f-88ed-497d47de14ad" points="22.8 13.54 23.29 14.22 23.94 15.13 25.03 16.65 25.03 16.65 25.27 16.99 25.58 16.77 26.16 16.36 24.8 14.45 24.15 13.55 23.83 13.09 24.51 13.28 25.89 13.65 28.82 14.46 29.56 13.93 28.22 12.06 27.57 11.15 27.09 10.48 27.09 10.48 26.11 9.11 25.89 9.27 25.22 9.74 26.66 11.76 27.31 12.67 27.55 13.01 27.02 12.86 25.61 12.48 22.56 11.64 22.03 12.03 21.83 12.17 22.8 13.53 22.8 13.54"/><polygon class="a685b3e0-3147-4a5f-88ed-497d47de14ad" points="30.96 10.41 32.02 12.48 35.97 10.45 35.55 9.63 32.58 11.15 31.92 9.89 31.83 9.7 34.37 8.4 33.97 7.61 33.96 7.59 33.34 7.91 31.42 8.9 31.41 8.89 30.71 7.53 33.58 6.05 33.16 5.23 29.31 7.21 30.45 9.42 30.96 10.41"/><polygon class="a685b3e0-3147-4a5f-88ed-497d47de14ad" points="37.52 7.29 38.25 9.47 39.29 9.12 38.54 6.9 38.18 5.85 38 5.32 38.6 5.7 39.81 6.45 41.1 7.26 42.38 8.07 43.24 7.78 42.5 5.6 42.15 4.55 41.34 2.17 40.63 2.41 40.3 2.52 40.77 3.89 40.77 3.89 41.1 4.86 41.46 5.91 41.59 6.32 41.12 6.02 40.97 5.93 39.89 5.25 37.21 3.56 36.35 3.85 37.16 6.24 37.52 7.29"/><path class="a685b3e0-3147-4a5f-88ed-497d47de14ad" d="M49.51,4.07l.23,2.3,1.6-.16.53,0,.8-.08a3,3,0,0,0,1.68-.58,1.39,1.39,0,0,0,.47-1.25,1.47,1.47,0,0,0-.21-.67.91.91,0,0,0-.17-.23,1.59,1.59,0,0,0-.82-.46A1.45,1.45,0,0,0,54,2.53l.12-.21a1.51,1.51,0,0,0,.13-.8A1.32,1.32,0,0,0,53.57.45,1.66,1.66,0,0,0,53.24.3,3.34,3.34,0,0,0,51.93.2l-2,.2-.76.07L49.41,3Zm3.84-.41a.73.73,0,0,1,.36.59c0,.57-.34.9-1.19,1l-.94.09-.72.07h-.11l0-.24-.12-1.23,0-.23.44,0,1.33-.13A1.66,1.66,0,0,1,53.35,3.66ZM51.89,1.07a2.16,2.16,0,0,1,.64,0,.88.88,0,0,1,.26.09.71.71,0,0,1,.37.58.71.71,0,0,1-.25.64,1.39,1.39,0,0,1-.52.23,1.86,1.86,0,0,1-.34.06l-1.31.13h0l-.22,0h0l-.1-1h0l-.06-.59Z" transform="translate(0 0.04)"/><polygon class="a685b3e0-3147-4a5f-88ed-497d47de14ad" points="58.65 3.58 58.67 2.49 58.71 0.02 57.61 0 57.57 2.48 57.55 3.56 57.51 5.92 58.61 5.94 58.65 3.58"/><path class="a685b3e0-3147-4a5f-88ed-497d47de14ad" d="M61.51,5.9a2.32,2.32,0,0,0,.82.31,1.2,1.2,0,0,0,.2,0,2.52,2.52,0,0,0,.83,0,1.72,1.72,0,0,0,.71-.33,2.16,2.16,0,0,0,.68-1.49l0-.34L64.91,3,65.19.5,64.35.4,62.83.23,62,.13l-.1.92,1.1.13,1,.11,0,.19-.15,1.35-.13,1.08,0,.42a1.51,1.51,0,0,1-.15.54h0a.78.78,0,0,1-.86.45h0a1.44,1.44,0,0,1-1.1-.8l-.7.68A2,2,0,0,0,61.51,5.9Z" transform="translate(0 0.04)"/><polygon class="a685b3e0-3147-4a5f-88ed-497d47de14ad" points="72 8.04 72.77 5.86 73.13 4.81 73.28 4.38 73.39 4.89 73.42 5.03 73.66 6.14 74.06 8.04 74.53 8.2 76.02 6.96 77 6.14 77.44 5.77 77.27 6.25 76.91 7.3 76.15 9.48 77.14 9.83 77.87 7.7 78.24 6.64 79.08 4.23 78.22 3.93 76.04 5.78 75.06 6.61 74.75 6.88 74.66 6.48 74.4 5.21 73.9 2.81 73.82 2.4 73.72 2.36 72.96 2.1 72.12 4.52 71.76 5.57 71.01 7.7 71.79 7.97 72 8.04"/><path class="a685b3e0-3147-4a5f-88ed-497d47de14ad" d="M82.05,12.39a3.47,3.47,0,0,0,1.62.45,2.86,2.86,0,0,0,1.52-.4,1.67,1.67,0,0,0,.28-.18,2.79,2.79,0,0,0,.44-.4,4,4,0,0,0,.41-.58,3.26,3.26,0,0,0,.18-.38,2.94,2.94,0,0,0,.22-1.2A2.85,2.85,0,0,0,86.6,9h0a2.71,2.71,0,0,0-.35-.78A3.33,3.33,0,0,0,85,7.06a3.47,3.47,0,0,0-1.62-.45,3,3,0,0,0-.89.13h0a2.73,2.73,0,0,0-.64.27,3.05,3.05,0,0,0-.9.82,4,4,0,0,0-.22.34,2.87,2.87,0,0,0-.27.66,2.62,2.62,0,0,0-.12.57h0c0,.11,0,.23,0,.34a2.92,2.92,0,0,0,.47,1.51A3.42,3.42,0,0,0,82.05,12.39Zm-.58-3.06a2.48,2.48,0,0,1,.24-.62A2.16,2.16,0,0,1,82,8.33a1.79,1.79,0,0,1,.49-.42,1.91,1.91,0,0,1,1-.29,2.28,2.28,0,0,1,1.86,1,1.86,1.86,0,0,1,.29,1,2,2,0,0,1-.1.64,2.2,2.2,0,0,1-.18.43,2.06,2.06,0,0,1-.4.52,1.93,1.93,0,0,1-.36.28,1.91,1.91,0,0,1-1,.29,2.16,2.16,0,0,1-1.06-.28,2.1,2.1,0,0,1-.8-.76,1.78,1.78,0,0,1-.29-1A1.71,1.71,0,0,1,81.47,9.33Z" transform="translate(0 0.04)"/><polygon class="a685b3e0-3147-4a5f-88ed-497d47de14ad" points="87.66 15.88 89.11 14.09 89.81 13.22 90.09 12.86 90.02 13.38 89.85 14.65 89.6 16.57 89.98 16.88 91.8 16.21 92.99 15.77 93.54 15.57 93.22 15.97 92.52 16.84 91.08 18.63 91.26 18.78 91.89 19.29 93.3 17.53 94 16.67 95.6 14.67 94.9 14.1 94.52 14.24 92.21 15.11 91.01 15.57 90.63 15.71 90.69 15.31 90.87 14.03 91.21 11.59 91.27 11.18 90.56 10.61 88.95 12.6 88.25 13.47 86.84 15.22 87.49 15.74 87.66 15.88"/><path class="a685b3e0-3147-4a5f-88ed-497d47de14ad" d="M94.93,20.28a2.83,2.83,0,0,0-.06,1.58,3.31,3.31,0,0,0,.78,1.49,3.39,3.39,0,0,0,1.38,1,2.9,2.9,0,0,0,1.57.14,1.77,1.77,0,0,0,.31-.08,2.16,2.16,0,0,0,.57-.24,3.19,3.19,0,0,0,.86-.69,3.05,3.05,0,0,0,.61-1.06,2.87,2.87,0,0,0,.13-.71,2.81,2.81,0,0,0-.07-.86,3.33,3.33,0,0,0-.79-1.49,3.39,3.39,0,0,0-1.37-1,2.94,2.94,0,0,0-1.58-.13,2.83,2.83,0,0,0-1.12.47,3.92,3.92,0,0,0-.32.25,3.37,3.37,0,0,0-.48.52A3.18,3.18,0,0,0,94.93,20.28Zm1,.4a1.73,1.73,0,0,1,.2-.41,2.19,2.19,0,0,1,.42-.5,3.28,3.28,0,0,1,.38-.27,2,2,0,0,1,1.66-.17,2.12,2.12,0,0,1,.9.63,2.06,2.06,0,0,1,.5,1A1.87,1.87,0,0,1,99.94,22a1.76,1.76,0,0,1-.31.57,2.07,2.07,0,0,1-.32.35,2.31,2.31,0,0,1-.54.36,2.25,2.25,0,0,1-.44.14,1.88,1.88,0,0,1-1-.07,2.28,2.28,0,0,1-1.41-1.6A1.89,1.89,0,0,1,95.94,20.68Z" transform="translate(0 0.04)"/><path class="a685b3e0-3147-4a5f-88ed-497d47de14ad" d="M105.19,30.73c-.3.23-.6.45-.92.65h0A53.71,53.71,0,1,1,5.6,72.19a10.09,10.09,0,0,1-1.1.18A54.83,54.83,0,0,0,96,96a54.88,54.88,0,0,0,9.24-65.26Z" transform="translate(0 0.04)"/></svg>