<?xml version="1.0" encoding="utf-8"?>
<!-- Generator: Adobe Illustrator 26.4.1, SVG Export Plug-In . SVG Version: 6.00 Build 0)  -->
<svg version="1.1" id="Laag_2_00000134244896361113086480000006568953727677704340_"
	 xmlns="http://www.w3.org/2000/svg" xmlns:xlink="http://www.w3.org/1999/xlink" x="0px" y="0px" viewBox="0 0 941.1 538.6"
	 style="enable-background:new 0 0 941.1 538.6;" xml:space="preserve">
<style type="text/css">
	.st0{fill:#7D7DA0;}
	.st1{fill:#FFFFFF;}
	.st2{fill:#FF9870;}
</style>
<g id="Laag_2-2">
	<g id="Laag_1-2">
		<g id="Logo">
			<g>
				<path class="st0" d="M110.1,284.6c-25.9-1.7-81.8-26.3-87.4-127.6C21,125.8,26.6,64.6,54.3,28.6C7.1,55.4-1.9,138.7,0.3,177
					c5.6,101.3,61.5,125.9,87.4,127.6c16.8,1.1,39-8,57.1-30C132.6,282.1,120.3,285.3,110.1,284.6z"/>
				<path class="st0" d="M320.6,284.7c-0.7,0-1.4,0-2.1,0c-0.5,0-1.1,0-1.6-0.1c-25.9-1.7-81.8-26.3-87.4-127.6
					c-1.8-31.2,3.9-92.4,31.6-128.4c-47.2,26.8-56.2,110.2-54,148.4c5.6,101.3,61.5,125.9,87.4,127.6c16.7,1.1,38.8-8,56.9-29.8
					c0.1-0.1,0.1-0.2,0.2-0.2C340.8,281.2,330,284.5,320.6,284.7z"/>
				<path class="st0" d="M622,258.6c-0.8-12.6,0.4-182.9,0-201.8c-0.7-34.9-30.4-38.6-54-34.8c-1.1,0.2-2.2,0.4-3.3,0.6
					c-24,4.6-20.4,32-21.9,54.5c-0.7,10.6-1.1,25.3-1.4,37.4c-0.2,8.8-0.4,16.1-0.7,19.3c-12.4,0.3-26.5,0.8-38.7,1.3
					c-0.6-39.1-0.8-65.1-0.8-80.6c0-27.5-24.5-36.7-48.6-32.8c-0.8,0.1-1.5,0.3-2.3,0.4c-26,5.9-27.5,37.8-27.5,51.2
					c0,11.4-2.8,121.4-1.2,177.8c1.5,54.8,35.2,48,56.4,46.9c14.9-0.8,22.3-10.3,25.2-20.3c1.2-4.2,1.6-8.4,1.4-12.1
					c-0.2-4.9-1.1-29.8-1.8-65.5c7.5-0.4,15.3-0.7,22.8-1c5.1-0.2,10.1-0.4,14.7-0.5c0.1,26.2,0.7,46.5,1.9,64.8
					c2.7,39.6,28.8,35.8,49.9,34.6c14.7-0.8,24-8.4,27.9-20.6C621.8,271.8,622.5,265.5,622,258.6L622,258.6L622,258.6z"/>
			</g>
			<g>
				<path class="st1" d="M199.2,140.4c-2.3-105.9-50.7-142.6-91-140.3C84.6,0.6,67.1,11.9,54.3,28.6C26.6,64.6,21,125.8,22.7,157
					c5.6,101.3,61.5,125.9,87.4,127.6c10.2,0.7,22.5-2.5,34.6-10C173.2,256.8,200.8,214.6,199.2,140.4L199.2,140.4L199.2,140.4z
					 M91.9,174.4L91.9,174.4c-3.7,3.3-7.9,5.2-12.5,5.2c-2.4,0-4.8-0.6-7.1-1.6c-10-4.6-17.5-18.8-17.9-35.8c0-0.6,0-1.1,0-1.6
					c0-17.7,7.6-32.7,17.9-37.4c2.2-1,4.6-1.6,7.1-1.6c10.4,0,19.4,10,23.1,24.2c1.2,4.6,1.9,9.6,1.9,14.8
					C104.4,155,99.4,167.6,91.9,174.4z"/>
				<path class="st2" d="M320.6,284.7c9.4-0.1,20.1-3.3,30.8-9.9c0.1-0.1,0.1-0.2,0.2-0.2C340.8,281.2,330,284.5,320.6,284.7z"/>
				<path class="st1" d="M406.2,140.4c-2.3-105.9-50.7-142.6-91-140.3c-23.6,0.5-41.1,11.8-53.9,28.5
					C233.6,64.6,228,125.8,229.7,157c5.6,101.3,61.5,125.9,87.4,127.6c0.5,0,0.9,0,1.4,0.1c0.7,0,1.4,0,2.1,0
					c9.4-0.2,20.3-3.4,31-10.1c-0.1,0.1-0.1,0.2-0.2,0.2c0.1-0.1,0.3-0.2,0.4-0.2C380.2,256.8,407.8,214.6,406.2,140.4L406.2,140.4
					L406.2,140.4z M311.4,142.2v0.4c0,14.4-5,26.9-12.4,33.7c-3.7,3.4-8,5.3-12.6,5.3c-2.5,0-4.8-0.6-7-1.6
					c-10-4.6-17.5-18.8-17.9-35.8c0-0.6,0-1.1,0-1.6c0-0.2,0-0.5,0-0.8c0-0.2,0-0.5,0-0.8v-0.5c0-17.7,7.6-32.7,17.9-37.4
					c2.2-1,4.6-1.6,7.1-1.6c10.4,0,19.4,10,23.1,24.2c1.2,4.6,1.9,9.6,1.9,14.8C311.5,141.1,311.5,141.6,311.4,142.2L311.4,142.2
					L311.4,142.2z"/>
				<path class="st1" d="M644.4,238.6L644.4,238.6c-0.8-12.6,0.4-182.9,0-201.8c-0.8-36.6-33.3-38.8-57.3-34.3
					c-11.6,2.2-16.7,9.7-19.1,19.4c-2.6,10.4-2,23.4-2.8,35c-1.2,18.3-1.5,49.1-2.1,56.7c-6.9,0.2-14.4,0.4-21.8,0.7
					c-5.8,0.2-11.5,0.4-16.9,0.7c-0.6-39.1-0.8-65.1-0.8-80.6c0-27.5-24.5-36.7-48.6-32.8c-13.2,2.1-20.6,10.6-24.7,20.4
					c-4.6,11.1-5.1,23.9-5.1,31.1c0,11.4-2.8,121.4-1.2,177.8c1.5,54.8,35.2,48,56.4,46.8c1,0,1.9-0.1,2.8-0.3
					c18.9-2.6,24.4-20.1,23.9-32.1c-0.2-4-0.8-21.1-1.4-46.5c-0.1-5.9-0.3-12.2-0.4-19c12.6-0.6,26.1-1.2,37.6-1.5
					c0.1,26.2,0.7,46.5,1.9,64.8c2.7,39.6,28.8,35.8,49.9,34.7c1.9-0.1,3.7-0.3,5.5-0.6C637.6,273.9,645.8,259.4,644.4,238.6
					L644.4,238.6L644.4,238.6z"/>
			</g>
			<g>
				<path class="st0" d="M490.6,412.1c-0.6,0-1.3,0.1-1.9,0.2c-5.5,0.6-10.6,2.8-13.3,6.5c-0.4,0.5-0.7,1.1-1,1.7
					c-8.2,18-18.8,39.8-30.2,55.8c-9.4,13.1-19.4,22.3-29.2,22.3c-16.1,0-4.6-89.4-0.4-105.8c4.2-16.2-5.6-18.8-22.5-18.9h-0.5
					c-1.4,0-2.7,0.2-3.9,0.5c-10.1,2.6-14,15-15.8,21.4c-0.1,0.3-0.3,1.2-0.6,2.4c-9.1-13.2-24.4-21.6-47.3-21.6
					c-12.1,0-22.3,3-30.8,8.3c-26.7,16.3-36.7,54-36.7,86.1c0,41.5,21.1,66,51.9,66c20.5,0,37.1-6.2,52.1-27.8
					c2.5-3.6,5-7.7,7.4-12.3c0.4,1.9,0.9,3.7,1.4,5.5c5.9,20.9,18.1,36.5,41.5,36.5c26,0,46.3-13.7,61.9-32.3c0.8-1,1.6-1.9,2.4-2.9
					c5.6-7.1,10.6-14.8,14.9-22.7c6.2-11.2,11.1-22.6,14.9-33.1c1.4-3.9,2.7-7.6,3.8-11.1c0.6-2,1.2-4,1.8-5.9
					C514,417.5,501.9,411.6,490.6,412.1L490.6,412.1L490.6,412.1z M320.1,413.2c2.2-0.7,4.5-1.1,7-1.1c9.3,0,26.6,9,25.2,31.1
					c-0.6,8.9-5.7,23.4-13.3,35.6c-7.4,11.9-17.3,21.5-27.8,21.5C280.9,500.3,289.1,423.5,320.1,413.2z"/>
				<path class="st0" d="M700.7,412.1c-0.8,0-1.6,0.1-2.5,0.2c-6.4,0.7-12.2,3.5-14.3,8.2c-0.8,1.8-1.7,3.6-2.5,5.5
					c-7.8,16.8-17.4,35.9-27.7,50.3c-9.4,13.1-19.4,22.3-29.2,22.3c-16.1,0-4.6-89.4-0.4-105.8c4.2-16.2-5.6-18.8-22.5-18.9H601
					c-1.4,0-2.7,0.2-3.9,0.5c-10.1,2.6-14,15.1-15.8,21.4c-0.1,0.3-0.3,1.2-0.6,2.4c-9.1-13.2-24.4-21.6-47.3-21.6
					c-12.1,0-22.3,3-30.8,8.3c-12.5,7.6-21.3,19.9-27.1,34.1c-4.3,10.4-7,21.8-8.4,33.2c-0.8,6.4-1.2,12.7-1.2,18.9
					c0,13.4,2.2,25,6.2,34.6c0.1,0.3,0.2,0.6,0.4,0.9c8.5,19.6,24.7,30.4,45.3,30.4c20.5,0,37.2-6.2,52.1-27.8
					c2.5-3.6,5-7.7,7.4-12.3c0.4,1.9,0.9,3.7,1.4,5.5c5.9,20.9,18.1,36.5,41.5,36.5c24.8,0,44.5-12.5,59.7-29.8
					c1.6-1.8,3.1-3.5,4.5-5.4c5.6-7.1,10.6-14.9,15-22.8c9.7-17.7,16.4-36.1,20.4-50.1C723.5,417.7,711.9,411.8,700.7,412.1
					L700.7,412.1L700.7,412.1z M502,473.4c-0.5-8.1,0.4-17.1,2.7-25.7c1-3.8,2.3-7.6,3.8-11.1c4.7-10.9,11.7-19.8,20.7-23.1
					c0.2-0.1,0.4-0.1,0.7-0.2c2.2-0.7,4.6-1.1,7-1.1c9.3,0,26.6,9,25.2,31.1c-0.6,8.9-5.7,23.4-13.3,35.6
					c-7.4,11.9-17.3,21.5-27.8,21.5C508.9,500.3,502.9,488.4,502,473.4L502,473.4L502,473.4z"/>
				<path class="st0" d="M905.4,403.8c-6,0.1-12,3-14.7,8.2c-5.2,12.2-19.1,45.1-33.6,66.7l0,0c-8,11.9-16.1,20.4-23,20.1
					c-18-0.8,28-112.3-45.1-112.3c-11.5,0-22.2,4.8-32,12.3c-4.3,3.3-8.5,7.2-12.5,11.4c-2.6,2.8-5.1,5.7-7.5,8.7
					c-7.8,9.7-14.5,20.4-20.1,30.3c0.2-3.3,0.4-6.5,0.6-9.8c6.7-8.6,14.5-18.8,22.3-30.1c26.6-38,54.9-87.3,50.6-120.5
					c-2.7-21.1-16.1-39.8-38.3-39.8c-6.3,0-12.2,1.6-17.5,4.5c-36.5,19.9-49.2,103-53.2,172.5c-0.4,6.8-0.7,13.4-1,19.8
					c-0.9,24.5-0.9,46-0.6,60.8c0,0.7,0,1.5,0,2.2c0.2,11.7,0.5,18.6,0.5,18.6c0.8,8.4,8,10.1,21,10.1c4.2,0,7.1-1.3,9.1-3.6
					c0.5-0.1,0.9-0.6,1.4-1.5c2.6-5.1,5.1-9.9,7.5-14.5c30.7-58.9,45.5-79.5,57.2-84.8c2.4-1.1,4.8-1.6,7-1.6
					c9.6,0,8.1,15.3,6.2,34.2c-1.3,13.7-9.7,72.9,37.1,72.9c16.1,0,31.7-6.8,43.2-18.9c3.3-3.4,6.7-7.2,10.1-11.4
					c13.3-16.2,27.7-39.2,39.4-77.6C925.6,411.7,915.5,403.7,905.4,403.8L905.4,403.8L905.4,403.8z M747,291.7
					c4,0,7.8,24.3-22.9,76.4C730,324.2,738.1,291.7,747,291.7z"/>
			</g>
			<g>
				<path class="st1" d="M495,399.2c-0.4,0.5-0.7,1.1-1,1.7c-1.7,3.6-3.4,7.5-5.3,11.3c-6.4,13.4-13.8,27.7-21.7,39.6
					c-7.3,11-15.1,20-22.9,24.3c-3.2,1.8-6.4,2.8-9.6,2.8c-16.1,0-4.6-89.4-0.4-105.8c4.2-16.4-5.9-18.9-23.1-18.9
					c-11.8,0-16.7,12-19,19.6c-0.3,0.8-0.5,1.6-0.7,2.3c-0.1,0.4-0.3,1.2-0.6,2.4c-1-1.4-2.1-2.8-3.2-4.1
					c-9.3-10.8-23.7-17.5-44.1-17.5c-23.5,0-39.7,11.4-50.4,27.8c-12.2,18.7-17.1,44-17.1,66.6c0,41.5,21.1,66,51.9,66
					c12,0,22.7-2.1,32.5-8.2c3-1.9,6-4.1,8.8-6.8c6.4-6,12.4-14.1,18.2-25c5.2,23.6,17.5,42,42.9,42c16,0,30-5.2,41.9-13.6
					c0.9-0.7,1.9-1.3,2.8-2c6.3-4.8,12-10.4,17.2-16.6c3.6-4.2,6.9-8.8,9.9-13.4c9.7-14.7,17-30.9,22.2-45.2
					c1.4-3.9,2.7-7.6,3.8-11.2c0.4-1.2,0.7-2.3,1-3.5c0.3-0.8,0.5-1.6,0.7-2.5C535.7,390.6,503.3,387.7,495,399.2L495,399.2
					L495,399.2z M371.9,423.6c-1,15.2-15.2,47.1-32.9,55.2c-2.7,1.2-5.4,1.9-8.2,1.9c-22.2,0-23.7-41.4-10.7-67.5
					c6-12,15.1-20.7,26.6-20.7C356,392.5,373.3,401.5,371.9,423.6z"/>
				<path class="st1" d="M703.6,400.9c-0.8,1.8-1.7,3.6-2.5,5.5c-0.9,1.9-1.8,3.9-2.8,5.9c-5.3,11.2-11.3,23-17.8,33.5
					c-8.4,13.8-17.6,25.4-26.8,30.5c-3.2,1.8-6.4,2.8-9.6,2.8c-16.1,0-4.6-89.4-0.4-105.8c4.2-16.4-5.8-18.9-23.1-18.9
					c-11.7,0-16.7,12-19,19.6c-0.3,0.8-0.5,1.6-0.7,2.3c-0.1,0.4-0.3,1.2-0.6,2.4c-1-1.4-2.1-2.8-3.2-4.1
					c-9.3-10.8-23.7-17.5-44.1-17.5c-23.5,0-39.7,11.4-50.4,27.8c-2.9,4.5-5.4,9.4-7.5,14.5c-1.7,4.2-3.2,8.5-4.4,12.9
					c-3.6,12.8-5.1,26.4-5.1,39.1c0,11.1,1.5,21,4.3,29.5c0.7,2.1,1.5,4.1,2.3,6c8.5,19.6,24.7,30.4,45.3,30.4
					c12,0,22.7-2.1,32.5-8.2c3-1.9,6-4.1,8.8-6.8c6.4-6,12.4-14.1,18.2-25c5.2,23.6,17.5,42,42.9,42c15.3,0,28.6-4.7,40.1-12.4
					c1.5-1,3.1-2.1,4.5-3.2c5.5-4.1,10.5-8.9,15.1-14.2c18.5-21,30.6-49,37.5-70.4c0.9-2.8,1.7-5.4,2.4-7.9c0.2-0.6,0.3-1.1,0.4-1.7
					C743.7,389.5,709.6,387.9,703.6,400.9L703.6,400.9L703.6,400.9z M581.5,423.6c-1,15.2-15.2,47.1-32.9,55.2
					c-2.7,1.2-5.4,1.9-8.2,1.9c-18.3,0-22.6-28.1-16.2-52.6c1-3.9,2.3-7.6,3.8-11.2c0.5-1.3,1.1-2.5,1.7-3.7
					c6-12,15.1-20.7,26.6-20.7C565.6,392.5,582.9,401.5,581.5,423.6z"/>
				<path class="st1" d="M910.2,392.4c-1.2,2.8-2.8,6.8-4.9,11.4c-10.8,24.7-32.1,69.6-48.3,74.9l0,0c-1.1,0.4-2.3,0.6-3.4,0.5
					c-18.1-0.8,28-112.2-45.1-112.2c-19.8,0-37.4,14.2-51.6,31.9c-8,9.9-14.9,20.8-20.5,30.9c0.2-3.2,0.4-6.5,0.6-9.8
					c2.4-3,4.9-6.3,7.5-9.7c29.5-39,70.6-101.4,65.5-140.9c-2.7-21.1-16.1-39.8-38.3-39.8c-15.3,0-27.5,9.1-37.1,24
					c-21.8,33.9-30.4,97.7-33.6,152.9c-0.1,1.9-0.2,3.8-0.3,5.7c-1.4,26.7-1.5,51.1-1.3,68.5c0,3.1,0.1,6,0.1,8.6
					c0.2,11.7,0.5,18.6,0.5,18.6c0.8,8,7.4,9.9,19.4,10.1c0.5,0,1,0,1.6,0c4.2,0,7.1-1.2,9.1-3.6c0.5-0.1,0.9-0.6,1.4-1.5
					c20.5-39.9,34.5-64.8,45.2-79.8c11.6-16.4,19.2-21.1,26.7-21.1c9.6,0,8.1,15.3,6.2,34.2c-1.3,13.7-9.7,72.9,37.1,72.9
					c12,0,23.8-3.8,33.8-10.8c3.4-2.4,6.5-5.1,9.5-8.1c15.8-16.7,34.8-40.7,49.5-89C948.6,380.9,917.5,378.4,910.2,392.4
					L910.2,392.4L910.2,392.4z M766.7,272.2c4,0,7.8,24.3-22.9,76.4C749.6,304.6,757.7,272.2,766.7,272.2L766.7,272.2L766.7,272.2z"
					/>
			</g>
			<path class="st0" d="M311.5,140.6c0,0.5,0,1.1,0,1.6v0.4c0,14.4-5,26.9-12.4,33.7c-3.7,3.4-8,5.3-12.6,5.3c-2.5,0-4.8-0.6-7-1.6
				c-10-4.6-17.5-18.8-17.9-35.8c0-0.6,0-1.1,0-1.6c0-0.2,0-0.5,0-0.8c0-0.2,0-0.5,0-0.8v-0.5c0-17.7,7.6-32.7,17.9-37.4
				c2.2-1,4.6-1.6,7.1-1.6c10.4,0,19.4,10,23.1,24.2C310.8,130.3,311.5,135.3,311.5,140.6L311.5,140.6L311.5,140.6z"/>
			<path class="st0" d="M104.4,140.6c0,14.4-5,27-12.5,33.8l0,0c-3.7,3.3-7.9,5.2-12.5,5.2c-2.4,0-4.8-0.6-7.1-1.6
				c-10-4.6-17.5-18.8-17.9-35.8c0-0.6,0-1.1,0-1.6c0-17.7,7.6-32.7,17.9-37.4c2.2-1,4.6-1.6,7.1-1.6c10.4,0,19.4,10,23.1,24.2
				C103.8,130.3,104.4,135.3,104.4,140.6z"/>
		</g>
	</g>
</g>
</svg>
