<svg id="Laag_1" data-name="Laag 1" xmlns="http://www.w3.org/2000/svg" width="647.55" height="229.19" viewBox="0 0 647.55 229.19"><defs><style>.cls-1{fill:#fff;}</style></defs><title>logo_wide_white</title><path class="cls-1" d="M78.46,90.83c-5-8.82-15.19-9.63-21.26-9.78-5.58-.23-14.2,3.25-20.7,8.83.24-2.09.7-3.95.93-5.34,1.17-5.82,0-6.28-10.92-6.75-2.79,0-5.12.24-7.21,11.4C16.74,103.6,1.16,207.06,0,226.13c1.16,3.72,14.18,3,14.18,3s7-45.11,13.49-85.79a21.32,21.32,0,0,0,11.39,5.81c23,4.87,38.52-18.48,41.37-34.06V115C82.56,103.45,81.33,95.84,78.46,90.83ZM65.33,110.57C61.85,126.62,50.45,134.76,47,135.92c-3.26,1.16-10.93,3.25-10-13a44.25,44.25,0,0,1,5.58-19.53c4.18-4.88,8.14-8.37,11.16-9.3C60.22,91.74,68.12,96.63,65.33,110.57Z" transform="translate(0 0)"/><path class="cls-1" d="M162.56,110.81l-8.38-5.66L154,105a2.43,2.43,0,0,0-3.36.71,1.59,1.59,0,0,0-.13.22c-4.65,7.43-19.76,30.45-32.08,30.45-10.23,0-16-9.53-18.84-22.55C163.49,41.29,147.68,11.3,139.31,5.72,119.55-7.77,93.51,1.3,84,63.15c-9.07,57,7,87.88,34.17,87.88,13.72,0,25-9.1,33-18.52a94.78,94.78,0,0,0,12.12-18.45A2.5,2.5,0,0,0,162.56,110.81Zm-61.84-46.5c9.76-47.66,23-56,29.52-49.76,4.19,4.42,4.65,27.21-32.31,76A154.15,154.15,0,0,1,100.72,64.31ZM78.46,90.83a119.78,119.78,0,0,0,2,24.28V115C82.56,103.45,81.33,95.84,78.46,90.83Z" transform="translate(0 0)"/><path class="cls-1" d="M162.56,110.81l-8.38-5.66a35,35,0,0,0-4.34,16.35,36.48,36.48,0,0,0,1.3,11,94.78,94.78,0,0,0,12.12-18.45A2.5,2.5,0,0,0,162.56,110.81Zm109.11,4.88-7.9-8.37a2.17,2.17,0,0,0-2.14-.62,1.65,1.65,0,0,0-.89.62c-5.58,6.51-26,29.06-36.5,28.83-9.53-.23-5.81-30-4-38.59,1.16-6,2.09-12.56,3-15.58a1.53,1.53,0,0,0-1.12-1.85h0c-6.05-1.63-12.32-1.16-14.42-.47-.69.24-1.16.7-1.16,1.17-.46,2.09-1.63,7.44-2.79,14.18a30.19,30.19,0,0,0-19.53-8.14c-9.75-.15-21.55,5.46-28.48,15.74l8.53,5.76h.06a5.47,5.47,0,0,1,1.55,7.06,98.92,98.92,0,0,1-13.64,20.31A24.2,24.2,0,0,0,174.72,151c11.16,0,20.92-9.53,27.9-19.76,2.09,10.69,7.67,19.53,19.3,19.76,10.94.32,24-7.15,35.54-17.48a124.24,124.24,0,0,0,14.21-15.07,2.1,2.1,0,0,0,0-2.76Zm-96.49,20.23c-5.58,0-9.3-5.12-9.06-12.32.23-13.72,10.69-23.49,20-23.25,5.81,0,10.23,3,13.49,7C191.92,123.83,179.83,135.92,175.18,135.92Z" transform="translate(0 0)"/><path class="cls-1" d="M162.56,110.81l-8.38-5.66L154,105a2.43,2.43,0,0,0-3.36.71,1.59,1.59,0,0,0-.13.22c-4.65,7.43-19.76,30.45-32.08,30.45-10.23,0-16-9.53-18.84-22.55C163.49,41.29,147.68,11.3,139.31,5.72,119.55-7.77,93.51,1.3,84,63.15c-9.07,57,7,87.88,34.17,87.88,13.72,0,25-9.1,33-18.52a94.78,94.78,0,0,0,12.12-18.45A2.5,2.5,0,0,0,162.56,110.81Zm-61.84-46.5c9.76-47.66,23-56,29.52-49.76,4.19,4.42,4.65,27.21-32.31,76A154.15,154.15,0,0,1,100.72,64.31Z" transform="translate(0 0)"/><path class="cls-1" d="M311.12,90.12c-11.62-1.86-26,10-33.48,22.32,1.63-9.07,3.49-18.84,5.12-27,1.16-5.82,0-6.51-10.93-6.75-2.79,0-5.35.24-7.21,11.4-.7,3.86-1.55,8.46-2.44,13.5a5.24,5.24,0,0,1,3.71,1.58l8,8.43a5.08,5.08,0,0,1,.22,6.65A128.7,128.7,0,0,1,256.93,138c-.37,3.28-.68,6.5-.91,9.58,1.4,4,14.41,3,14.41,3,.47.23.93.23,1.17-.7,5.58-16,30.22-48.13,36.73-46.27,6.28,1.86-2.32,38.83-2.32,42.31,0,3.26,12.55,5.82,14.88,4.89,1.62-.7,4.41-15.11,5.81-33.48C328.33,98.72,318.56,91.28,311.12,90.12Z" transform="translate(0 0)"/><path class="cls-1" d="M271.67,115.69l-7.9-8.37a2.17,2.17,0,0,0-2.14-.62,1.65,1.65,0,0,0-.89.62c-5.58,6.51-26,29.06-36.5,28.83-9.53-.23-5.81-30-4-38.59,1.16-6,2.09-12.56,3-15.58a1.53,1.53,0,0,0-1.12-1.85h0c-6.05-1.63-12.32-1.16-14.42-.47-.69.24-1.16.7-1.16,1.17-.46,2.09-1.63,7.44-2.79,14.18a30.19,30.19,0,0,0-19.53-8.14c-9.75-.15-21.55,5.46-28.48,15.74l8.53,5.76h.06a5.47,5.47,0,0,1,1.55,7.06,98.92,98.92,0,0,1-13.64,20.31A24.2,24.2,0,0,0,174.72,151c11.16,0,20.92-9.53,27.9-19.76,2.09,10.69,7.67,19.53,19.3,19.76,10.94.32,24-7.15,35.54-17.48a124.24,124.24,0,0,0,14.21-15.07A2.1,2.1,0,0,0,271.67,115.69Zm-96.49,20.23c-5.58,0-9.3-5.12-9.06-12.32.23-13.72,10.69-23.49,20-23.25,5.81,0,10.23,3,13.49,7-7.69,16.48-19.78,28.57-24.43,28.57Z" transform="translate(0 0)"/><path class="cls-1" d="M410.44,91.51c-4.88.7-5.12,8.14-5.12,8.14s-.13,1.39-.33,3.69l10,3.26.12.05a5.93,5.93,0,0,1,3.42,3.69,5.26,5.26,0,0,1-.62,4.32c-1.32,2.42-7.12,10.65-15.6,19-.5,6.12-.89,11.2-1,13.23-.23,4.41,11.62,4.64,13.48,4s8.84-52.78,8.84-56.5C423.46,90.81,415.55,90.81,410.44,91.51Z" transform="translate(0 0)"/><path class="cls-1" d="M415.35,113.13c-1.34,2.52-6,9-12.64,15.89-14.25,14.78-37.83,31.5-58.28,15.5-10.46-8.37-18.13-21.86-9.06-78.82.69-4.18,1.16-7.9,1.86-11.39-7.21.93-13,1.86-16.28,2.33A3.62,3.62,0,0,1,317,54.08a54.17,54.17,0,0,1-.93-9.07,3.59,3.59,0,0,1,2.32-3.49c5.12-1.86,13-3.25,21.86-4.18a277.91,277.91,0,0,1,7.44-32.09c2.09-7,18.83-4.41,18.13-.46-1.39,8.6-2.55,7.67-7.2,31.15C371.4,35.25,383,35,389.07,35a3.47,3.47,0,0,1,3.5,3.44,2.62,2.62,0,0,1,0,.28c-.46,2.79-.93,6.51-1.39,9.77a3.57,3.57,0,0,1-3.72,3c-9.07-.7-20.69,0-31.85.93-.47,3.72-1.17,7.67-2.1,12.32-5.35,32.79-9.53,59.06,2.1,68.59,14.18,11.39,41.84-22.32,44.87-26.27a3.11,3.11,0,0,1,3.48-.93l.75.24,9.25,3C415.58,110.11,416.28,111.74,415.35,113.13Z" transform="translate(0 0)"/><path class="cls-1" d="M430.61,75.52a2.5,2.5,0,0,1,.31.84A2.31,2.31,0,0,0,430.61,75.52ZM490.46,1.77c-20-7.68-35.8,10.92-42.78,30.22-2.32,7-5.35,20.46-8.14,36.5a58.33,58.33,0,0,1-8.25.54,9.19,9.19,0,0,1-.74.91,7,7,0,0,0-.61.72c-.17.24-.34.47-.57.74A5.48,5.48,0,0,1,434,76.64c.15,2.16-.82,4.43-2.91,6.79a48.73,48.73,0,0,0,5.92-.06c-3.72,24.18-6.75,50.22-7.21,64.87,1.39,3.72,14.41,2.56,14.41,2.56s1.86-17.21,4.89-38.83c6.92.56,13.7.68,20.2-.89h0l1.35-.35,1.32-.39,2.65-.83.65-.2,1.51-.49.24-.08.25-.09.13-.05a1.12,1.12,0,0,0,.24-.19.64.64,0,0,0,.1-.13c.06-.11.12-.22.17-.33a1.8,1.8,0,0,0,.08-.21l.06-.22a4.24,4.24,0,0,0,.15-.79,2.21,2.21,0,0,1,.06-.61,2.5,2.5,0,0,0,0-.67,23.78,23.78,0,0,0-.1-2.53,8.4,8.4,0,0,0-.08-.85c-.07-.64-.16-1.29-.27-1.94a4.4,4.4,0,0,0-.13-.74c0-.24-.09-.47-.13-.69-.1-.53-.22-1-.34-1.54s-.29-1-.44-1.51a10.55,10.55,0,0,0-.39-1.09c0-.11-.09-.21-.13-.31v-.08a4.18,4.18,0,0,0-.59-1h0c-.23-.27-.46-.38-.68-.3a58.61,58.61,0,0,1-23.77,3.79c.7-5.12,1.63-10.23,2.32-15.35C476.53,75.5,490,59,495.62,49.46,507,29.9,508.36,8.74,490.46,1.77ZM489.3,26.88c-7.44,21.62-20,32.55-33,37.66a253.9,253.9,0,0,1,6.05-26c8.14-24.88,20.69-29.29,24.41-27C491.39,14.09,491.86,19.67,489.3,26.88Z" transform="translate(0 0)"/><path class="cls-1" d="M475.79,93.38l-.14-.2a4.18,4.18,0,0,1,.59,1A5.67,5.67,0,0,0,475.79,93.38Z" transform="translate(0 0)"/><path class="cls-1" d="M576.34,136.87l-.23.16c-6.41,4.47-21.48,13.15-33.46,14-13.68,1-18.36-12.55-19.06-26.27-1.63,2.32-3.26,4.65-5.12,7-12.09,16-27.47,20.24-35.8,16-9.3-4.89-12.79-12.09-12.09-25.81.15-3.08.44-5.85.81-8.34.5-.13,1-.28,1.47-.43l.61-.19c2.42-.75,4.08-1.28,4.72-1.51,1.9-.57,4.12-2.52,2.6-11.85-.68-4.13-1.56-6.55-2.52-8,.23-.66.69-1.11,1.14-1.11a21,21,0,0,1,13.49,0,1.74,1.74,0,0,1,.93,2.09c-.7,2.79-4.19,16.51-5.12,24.42-1.16,11.15-.69,16.73,3.72,16.5,9.3,0,30.69-33.24,35.81-46.73.7-3,1.39-5.35,1.63-6.51A2.71,2.71,0,0,1,531,79.19a36.29,36.29,0,0,1,14.41.93,1.66,1.66,0,0,1,1.18,2v0c-.93,2.79-2.1,9.3-3.72,15.35-2.1,8.6-7,38.78,2.55,38.59,5.76-.12,20.67-8.58,23.92-11.83a.64.64,0,0,1,.47-.17C572.41,124.12,581.31,133.41,576.34,136.87Z" transform="translate(0 0)"/><path class="cls-1" d="M490.46,1.77c-20-7.68-35.8,10.92-42.78,30.22-2.32,7-5.35,20.46-8.14,36.5a58.33,58.33,0,0,1-8.25.54,9.19,9.19,0,0,1-.74.91,7,7,0,0,0-.61.72c-.17.24-.34.47-.57.74A5.48,5.48,0,0,1,434,76.64c.15,2.16-.82,4.43-2.91,6.79a48.73,48.73,0,0,0,5.92-.06c-3.72,24.18-6.75,50.22-7.21,64.87,1.39,3.72,14.41,2.56,14.41,2.56s1.86-17.21,4.89-38.83c6.92.56,13.7.68,20.2-.89h0l1.35-.35,1.32-.39,2.65-.83.65-.2,1.51-.49.24-.08.25-.09.13-.05a1.12,1.12,0,0,0,.24-.19.64.64,0,0,0,.1-.13c.06-.11.12-.22.17-.33a1.8,1.8,0,0,0,.08-.21l.06-.22a4.24,4.24,0,0,0,.15-.79,2.21,2.21,0,0,1,.06-.61,2.5,2.5,0,0,0,0-.67,23.78,23.78,0,0,0-.1-2.53,8.4,8.4,0,0,0-.08-.85c-.07-.64-.16-1.29-.27-1.94a4.4,4.4,0,0,0-.13-.74c0-.24-.09-.47-.13-.69-.1-.53-.22-1-.34-1.54s-.29-1-.44-1.51a10.55,10.55,0,0,0-.39-1.09c0-.11-.09-.21-.13-.31v-.08a4.18,4.18,0,0,0-.59-1h0c-.23-.27-.46-.38-.68-.3a58.61,58.61,0,0,1-23.77,3.79c.7-5.12,1.63-10.23,2.32-15.35C476.53,75.5,490,59,495.62,49.46,507,29.9,508.36,8.74,490.46,1.77ZM489.3,26.88c-7.44,21.62-20,32.55-33,37.66a253.9,253.9,0,0,1,6.05-26c8.14-24.88,20.69-29.29,24.41-27C491.39,14.09,491.86,19.67,489.3,26.88Z" transform="translate(0 0)"/><path class="cls-1" d="M646.55,110.81,638,105a2.43,2.43,0,0,0-3.36.71,1.59,1.59,0,0,0-.13.22c-4.65,7.43-19.76,30.45-32.08,30.45-10.23,0-16-9.53-18.83-22.55C647.48,41.29,631.67,11.3,623.3,5.72,603.54-7.77,577.5,1.3,568,63.15c-3.85,24.19-3.17,43.69,1,58.11a3.34,3.34,0,0,1,.89-.11c3.72,0,9.19,5.89,10.57,10.29,1,3.27.17,6.14-2.35,7.89l-.14.09A30.16,30.16,0,0,0,602.15,151c24.41,0,41.15-28.83,45.1-37A2.5,2.5,0,0,0,646.55,110.81Zm-61.84-46.5c9.76-47.66,23-56,29.53-49.76,4.18,4.42,4.65,27.21-32.32,76a154.15,154.15,0,0,1,2.79-26.24Z" transform="translate(0 0)"/><path class="cls-1" d="M576.34,136.87l-.23.16c-6.41,4.47-21.48,13.15-33.46,14-13.68,1-18.36-12.55-19.06-26.27-1.63,2.32-3.26,4.65-5.12,7-12.09,16-27.47,20.24-35.8,16-9.3-4.89-12.79-12.09-12.09-25.81.15-3.08.44-5.85.81-8.34.5-.13,1-.28,1.47-.43l.61-.19c2.42-.75,4.08-1.28,4.72-1.51,1.9-.57,4.12-2.52,2.6-11.85-.68-4.13-1.56-6.55-2.52-8,.23-.66.69-1.11,1.14-1.11a21,21,0,0,1,13.49,0,1.74,1.74,0,0,1,.93,2.09c-.7,2.79-4.19,16.51-5.12,24.42-1.16,11.15-.69,16.73,3.72,16.5,9.3,0,30.69-33.24,35.81-46.73.7-3,1.39-5.35,1.63-6.51A2.71,2.71,0,0,1,531,79.19a36.29,36.29,0,0,1,14.41.93,1.66,1.66,0,0,1,1.18,2v0c-.93,2.79-2.1,9.3-3.72,15.35-2.1,8.6-7,38.78,2.55,38.59,5.76-.12,20.67-8.58,23.92-11.83a.64.64,0,0,1,.47-.17C572.41,124.12,581.31,133.41,576.34,136.87Z" transform="translate(0 0)"/><path class="cls-1" d="M431,76.85a3.52,3.52,0,0,1-.13,1.21.66.66,0,0,1-.06.2,6.22,6.22,0,0,1-.58,1.29A3.81,3.81,0,0,1,430,80c-.09.14-.18.28-.28.41a11.6,11.6,0,0,1-1.05,1.27,11.8,11.8,0,0,1-1,1,38.22,38.22,0,0,1-5,3.88c-4.93,3.23-11.6,2.12-14.06-.93-4-4.93-6.21-8.8-6.38-11.6a4.75,4.75,0,0,1,.62-3.45c1.78-2.89,5.54-1.23,6.85,2.06a55.17,55.17,0,0,0,4.3,7.6,7.2,7.2,0,0,0,.47-2.71,1.47,1.47,0,0,0-.41-.76c-3.26-3.83-8.37-13.7-6.89-17.42.62-1.55,1.11-1.64,1.65-1.7,2.87-.31,3.44,2.07,5.33,6,.61,1.28,1.24,2.55,2,4a5.6,5.6,0,0,0-.12-2c-.72-4.68-.34-11.3,3-14.56,1.18-1.13,3.47-1.77,4.12-.3,1.81,4.09-1.31,8.89-2.79,12.56-1.07,2.42-1.3,3.18-1.75,4.15a16.58,16.58,0,0,0,2.13-2.06,13.77,13.77,0,0,1,7.12-4.4c2-.36,2.45,2,2.2,3.36a7.61,7.61,0,0,1-1,2.69c-.08.12-.16.24-.25.35l-.12.15a2.09,2.09,0,0,1-.24.28c-.17.17-.3.32-.41.45s-.31.39-.43.55l-.19.25a5.32,5.32,0,0,1-.37.46c-.37.42-1,1-2.13,2.11-.25.23-.56.42-.81.65a35.64,35.64,0,0,1-3.45,2.79c-.46.33-.92.64-1.4.94A21.11,21.11,0,0,0,416.44,78c-.16,0-.34,1-.41,2.89.19-.11,1.6-1.2,4.08-2.78,1.42-.9,3.18-2,5.27-3.08a5.69,5.69,0,0,1,3.26-.67,3.61,3.61,0,0,1,.65.15l.21.08.2.1.18.1.18.13a2.76,2.76,0,0,1,.3.29,1.09,1.09,0,0,1,.13.17l.12.18a2.31,2.31,0,0,1,.31.84A2.36,2.36,0,0,1,431,76.85Z" transform="translate(0 0)"/></svg>