<?xml version="1.0" encoding="UTF-8"?><svg id="Laag_2" xmlns="http://www.w3.org/2000/svg" viewBox="0 0 535.17 283.24"><defs><style>.cls-1{fill:#fff;}</style></defs><g id="Laag_1-2"><g><g><path class="cls-1" d="M150.62,226.44c0,29,15.2,45,36.2,45,18.2,0,28-6.2,34.2-24.8l1.6,1c-5.6,23.6-18.2,35.6-41,35.6-27.8,0-45.2-18.4-45.2-50,0-28,20.8-48.2,52.8-48.2,17.6,0,28,4.8,32,7.6-1,9.6-1.8,22-2.2,35h-2.2l-2.8-14.6c-4-18.4-16.8-23.2-36.4-23.2-17.4,.6-27,12-27,36.6Z"/><path class="cls-1" d="M279.99,283.24c-26.6,0-44.2-19.6-44.2-50.6,0-27.2,17.2-47.6,52.2-47.6,27.2,0,43.8,15.6,43.8,42.6,0,33.2-21.4,55.6-51.8,55.6Zm8.4-5.4c19.8,0,28.6-13.2,28.6-41.8,0-31.8-14.2-47.6-35.8-47.6-18.6,0-31,11-31,38.4,0,32.6,14,51,38.2,51Z"/><path class="cls-1" d="M420.37,256.44l-1-.2c-3.6,13.6-18.8,27-39.4,27-24.2,0-35.2-16.8-35.2-42.2,0-33.2,18.8-55.8,50.8-55.8,6.8,0,15.4,1.2,24,4.2-.6-29.4-2.61-24.79-7.61-25.59l-11-.41v-2c17-4.59,25-11.59,30.81-16.6l2,.4c-.2,18.4-.2,37.8-.2,70.8,0,57.4,.8,58.2,9.4,61l7.6,1.8v2.4h-29.8c-.2-6.8-.4-14.2-.4-24.8Zm-.8-61.4c-15.6-4.4-24.6-4.8-33.2-4.8-17.6,0-27,15.2-27,43.8s8.4,39.2,28.6,39.2c15.4,0,31.8-7.6,31.8-28,0-21.8,0-38-.2-50.2Z"/><path class="cls-1" d="M534.17,220.84l-13.8,3.4-59-.6v3.8c0,30.6,15,44.2,37.4,44.2,17.6,0,28-7.4,34.6-27.2l1.8,1c-6.4,25.6-19.2,37.8-43,37.8-27.8,0-45.6-18.4-45.6-50.6,0-27.8,18.4-47.6,51.2-47.6,23.6,0,37.2,12.6,36.4,35.8Zm-72.6,1.4l52.6-2c4.2-.4,5.2-2.8,5.2-6.2,0-15-11.8-25.6-27.8-25.6-18,0-28.6,12-30,33.8Z"/></g><path class="cls-1" d="M90.33,236.82c-.61,29.67-13.73,46.02-49.05,46.02-26.85,0-39.97-13.12-39.97-31.09,0-15.95,16.75-24.22,41.38-28.86-8.68-3.84-15.74-11.71-15.74-22.41,0-12.72,10.5-25.64,34.11-25.64,12.11,0,21.19,3.03,26.65,6.06l-8.88,30.28h-2.02l1.21-10.29c1.21-12.51-1.82-16.55-14.74-16.55-19.58,0-33.31,10.9-33.31,21.19,0,6.06,13.12,11.3,33.51,11.3h4.44v1.61c-34.92,6.26-57.53,18.57-57.53,35.12,0,9.69,12.52,17.36,34.32,17.36,27.45,0,41.38-11.3,43.4-34.31-5.85,0-11.91-.2-17.56-.2-10.09,0-13.73,3.43-16.15,16.35h-1.82c1.41-18.97,6.86-26.04,23.82-26.24,9.08,0,21.6,.61,26.85,.61,10.29,0,7.91-.61,10.74-6.66l3.43-7.87h2.02c-3.06,9.25-3.06,18.25-2.66,24.83-6.66,0-16.35-.4-26.44-.61Z"/><g><path class="cls-1" d="M37,125.24c-4.4,13.8-8.4,30.2-12,49.4H0c13-37.6,38.8-88.8,38.8-102.8,0-4.8-3-8.2-10-8.2-6,0-11.2,2.2-18.6,18.4l-2.2-1c9.6-27.2,15.4-38.4,24-38.4,6.4,0,11.6,9.4,11.6,27,0,8-4.6,29-8,45.2l1.8,.6c18.4-52.2,30.8-72.8,44.2-72.8,9,0,14,12.8,14,26,0,32.2-17.6,74.6-40,74.6-8,0-13.8-7.8-18.6-18Zm53.8-52.4c0-5.2-3.6-8.8-10.4-8.8-11,0-28,16.2-42,57,4.8,1.4,9,2.2,12.8,2.2,25.2,0,39.6-28.6,39.6-50.4Z"/><path class="cls-1" d="M122.2,63.64c-5.8,0-10.8,2.2-18.2,18.4l-2.2-1c9.6-27.2,15.4-38.4,24-38.4,6.2,0,11.8,8,11.8,17.4,0,12.8-13.6,39.8-13.6,52,0,6.2,2.8,9.4,6.6,9.4,4.6,0,7.8-4,14.8-18.8l2.2,1c-10.2,31-17.4,39.6-26.6,39.6-8.2,0-14.4-8.6-14.4-18,0-18.4,24-43.6,24.2-54.6,0-4-3-7-8.6-7Zm9-46.2c0-9,5.6-13.2,14.4-13.2,6,0,10,3.2,10,10,0,9.4-5.6,14-14.4,14-6,0-10-3.6-10-10.8Z"/><path class="cls-1" d="M193.8,93.64c-9.8,16.4-19.6,32.6-29.2,49.4-5-5.2-10.4-11.2-14.2-17,14.4-12.2,29.2-24,42.2-35-1.2-17-4.4-27.4-14.8-27.4-7.8,0-11.6,2.2-20.6,18.4l-2-1c10.6-27.8,16.8-38.4,25.8-38.4,9.6,0,13.4,18.8,15.8,46.2,9.6-15.2,19-30.8,28-46.4,5.6,3.4,11.4,7.6,15.8,12.4-15,12.6-30,25.8-42.2,36.6,2,18,5.6,29.8,15.6,29.8,6.4,0,11-3.6,18.6-18.6l2,1c-10.8,30.2-17.2,39.6-27,39.6-11.2,0-12.4-21.2-13.8-49.6Z"/><path class="cls-1" d="M242,102.24c0-31.4,25.6-59.6,46.6-59.6,16.4,0,26.2,12.4,26.2,22.4,0,12.8-21.4,21-65.6,27.8-1.8,4.8-2.8,9.6-2.8,14.4,0,11,12,16,21,16,15,0,36-11.2,42.6-26.8l2,1.4c-8.2,25.2-26.2,45.4-43.6,45.4-15.2,0-26.4-13.4-26.4-41Zm8-11.4c35.8-8,51.6-16.6,51.6-22.6,0-3.8-3.2-7.8-11.2-7.8-17,0-33.4,14-40.4,30.4Z"/><path class="cls-1" d="M344.2,20.64c-3.4,0-10,1.8-16.2,5.6l-1.6-2c7.4-11.2,15.2-19,21.2-19,5.4,0,10.2,5.8,10.2,13.4,0,18.8-20,74.8-20,91.8,0,7.8,3.2,11,7.4,11s7.6-3.8,14.6-18.4l2,1c-10,30.6-17.4,39.2-26.4,39.2-8.4,0-15-8.8-15-20,0-22.8,32.4-81,32.4-96.6,0-3.4-3.4-6-8.6-6Z"/><path class="cls-1" d="M440.19,46.84c-3.4,11.6-5.4,20.8-7.8,34.8h-3c3-17.4-1.2-21.4-18.8-21.4-19.4,0-29.4,7.2-29.4,14.2,0,13.8,51,10,51,31.8,0,13.2-21.8,37-42.8,37-13,0-22.4-7.8-27.6-12.8,3.4-9.4,6.2-20.6,8.2-31h3c-3.2,26.4,7.4,29,29.8,29,13.6,0,19-4.6,19-12.6,0-16.4-44.8-20.8-44.8-41.8,0-15.6,14-31.4,39.8-31.4,9.4,0,19.2,2.4,23.4,4.2Z"/></g><g><path class="cls-1" d="M193.41,28.22c-2.49,0-4.56-.56-6.21-1.67-1.65-1.11-2.65-2.8-3.02-5.05l3.82-.92c.21,1.09,.57,1.95,1.07,2.59,.5,.64,1.13,1.09,1.89,1.35s1.57,.4,2.45,.4c1.3,0,2.3-.25,3-.76,.7-.5,1.05-1.15,1.05-1.95s-.33-1.38-.99-1.75c-.66-.37-1.65-.68-2.94-.92l-1.35-.24c-1.33-.24-2.53-.58-3.62-1.03-1.09-.45-1.95-1.07-2.59-1.87-.64-.8-.95-1.82-.95-3.06,0-1.86,.69-3.29,2.07-4.32,1.38-1.02,3.21-1.53,5.49-1.53s4.01,.5,5.43,1.49c1.42,.99,2.34,2.34,2.77,4.04l-3.82,1.07c-.24-1.19-.74-2.04-1.51-2.53-.77-.49-1.72-.74-2.86-.74s-1.99,.21-2.63,.62c-.64,.41-.95,.99-.95,1.73,0,.8,.31,1.38,.93,1.75,.62,.37,1.47,.65,2.53,.84l1.39,.24c1.41,.24,2.69,.57,3.86,.99,1.17,.42,2.09,1.03,2.76,1.83,.68,.8,1.01,1.86,1.01,3.18,0,1.96-.73,3.49-2.19,4.57-1.46,1.09-3.42,1.63-5.89,1.63Z"/><path class="cls-1" d="M211.99,28.4c-1.19,0-2.14-.36-2.84-1.07-.7-.72-1.05-1.67-1.05-2.86V12.25h-5.41v-3.46h5.41V2.3h4.1v6.48h5.85v3.46h-5.85v11.5c0,.8,.37,1.19,1.11,1.19h4.1v3.46h-5.41Z"/><path class="cls-1" d="M229.18,28.34c-1.49,0-2.81-.33-3.98-.99-1.17-.66-2.08-1.6-2.75-2.82-.66-1.22-.99-2.68-.99-4.38V8.37h4.1v11.5c0,1.7,.42,2.95,1.27,3.76,.85,.81,2.03,1.21,3.54,1.21,1.67,0,3.02-.56,4.04-1.69,1.02-1.13,1.53-2.75,1.53-4.87V8.37h4.1V27.98h-4.02v-2.94h-.64c-.37,.8-1.03,1.55-1.99,2.25-.95,.7-2.36,1.05-4.22,1.05Z"/><path class="cls-1" d="M253.01,28.4c-1.62,0-3.12-.4-4.5-1.19-1.38-.8-2.49-1.94-3.32-3.44-.84-1.5-1.25-3.31-1.25-5.43v-.6c0-2.09,.41-3.9,1.23-5.41,.82-1.51,1.92-2.67,3.3-3.46,1.38-.8,2.89-1.19,4.54-1.19,1.27,0,2.34,.16,3.2,.48,.86,.32,1.57,.72,2.13,1.21,.56,.49,.98,1,1.27,1.53h.64V0h4.1V27.85h-4.02v-2.78h-.64c-.5,.85-1.27,1.62-2.29,2.31-1.02,.69-2.49,1.03-4.4,1.03Zm1.15-3.58c1.78,0,3.24-.57,4.4-1.71,1.15-1.14,1.73-2.77,1.73-4.89v-.36c0-2.09-.57-3.71-1.71-4.85-1.14-1.14-2.61-1.71-4.42-1.71s-3.2,.57-4.36,1.71c-1.15,1.14-1.73,2.76-1.73,4.85v.36c0,2.12,.58,3.75,1.73,4.89,1.15,1.14,2.61,1.71,4.36,1.71Z"/><path class="cls-1" d="M271.27,6.05c-.8,0-1.47-.26-2.01-.78-.54-.52-.82-1.19-.82-2.01s.27-1.49,.82-2.01c.54-.52,1.21-.78,2.01-.78s1.5,.26,2.03,.78c.53,.52,.8,1.19,.8,2.01s-.27,1.49-.8,2.01c-.53,.52-1.21,.78-2.03,.78Zm-2.07,22.28V8.71h4.1V28.33h-4.1Z"/><path class="cls-1" d="M287.38,28.38c-1.96,0-3.71-.4-5.23-1.21-1.53-.81-2.73-1.97-3.6-3.48s-1.31-3.3-1.31-5.37v-.6c0-2.07,.44-3.85,1.31-5.35,.88-1.5,2.07-2.66,3.6-3.48,1.52-.82,3.27-1.23,5.23-1.23s3.71,.41,5.25,1.23c1.54,.82,2.75,1.98,3.62,3.48,.88,1.5,1.31,3.28,1.31,5.35v.6c0,2.07-.44,3.86-1.31,5.37-.88,1.51-2.08,2.67-3.62,3.48s-3.29,1.21-5.25,1.21Zm0-3.66c1.8,0,3.27-.58,4.4-1.73,1.13-1.15,1.69-2.75,1.69-4.79v-.36c0-2.04-.56-3.64-1.67-4.79s-2.59-1.73-4.42-1.73-3.23,.58-4.36,1.73c-1.13,1.15-1.69,2.75-1.69,4.79v.36c0,2.04,.56,3.64,1.69,4.79,1.13,1.15,2.58,1.73,4.36,1.73Z"/></g></g></g></svg>