<?xml version="1.0" encoding="utf-8"?>
<!-- Generator: Adobe Illustrator 26.4.1, SVG Export Plug-In . SVG Version: 6.00 Build 0)  -->
<svg version="1.1" id="Laag_2_00000086659802985598826440000000607877739007914165_"
	 xmlns="http://www.w3.org/2000/svg" xmlns:xlink="http://www.w3.org/1999/xlink" x="0px" y="0px" viewBox="0 0 265 109.2"
	 style="enable-background:new 0 0 265 109.2;" xml:space="preserve">
<style type="text/css">
	.st0{fill:#FFFFFF;}
</style>
<g id="Laag_1-2">
	<path class="st0" d="M26.1,43l6.1-7.3c4.7,4,10,6.5,16.3,6.5c5.3,0,8.1-2.5,8.1-5.5c0-3.5-2.9-4.6-10.4-6.3
		C35.7,27.9,28.3,25,28.3,15.4S35.8,0,46.5,0c8.1,0,14.3,2.5,19.4,6.8l-5.5,7.6c-4-3.4-8.9-5.3-14.1-5.5c-4.5,0-7.3,2.4-7.3,5.3
		c0,3.6,3,4.8,10.6,6.5c10.6,2.4,17.7,5.5,17.7,14.7s-7.1,15.7-19.2,15.7C40,51.3,32.1,48.4,26.1,43z"/>
	<path class="st0" d="M74.8,28.9V0.9h10.6v27.7c0,7.6,4.9,13,11.8,13s11.7-5.4,11.7-13V0.9h10.7v28.1c0,13-9.3,22.3-22.4,22.3
		S74.8,42,74.8,28.9z"/>
	<path class="st0" d="M126,43l6.1-7.3c4.7,4,10,6.5,16.3,6.5c5.3,0,8.1-2.5,8.1-5.5c0-3.5-2.9-4.6-10.4-6.3
		c-10.4-2.4-17.9-5.3-17.9-14.9S135.7,0,146.5,0c8.1,0,14.3,2.5,19.4,6.8l-5.6,7.6c-3.9-3.4-8.9-5.3-14.1-5.5
		c-4.5,0-7.3,2.4-7.3,5.3c0,3.6,2.9,4.8,10.6,6.5c10.7,2.4,17.7,5.5,17.7,14.7s-7.1,15.7-19.2,15.7C139.9,51.3,132.1,48.4,126,43z"
		/>
	<path class="st0" d="M218.6,0.9v49.5H208V29.9h-22.5v20.5h-10.6V0.9h10.6v19.4H208V0.9H218.6z"/>
	<path class="st0" d="M228.5,0.9h10.7v49.5h-10.7V0.9z"/>
	<path class="st0" d="M0,71.1h14.3l8.4,21.3l8.2-21.3h14.3l-16.1,37.2H16.3L0,71.1z"/>
	<path class="st0" d="M84.3,86.4v22H71v-2.7c-2.7,2.3-6.1,3.6-9.6,3.5c-8,0-14.3-4.9-14.3-11.9S54.1,85,63.1,85
		c2.7,0.1,5.4,0.6,7.8,1.7v-0.2c0-3.7-3.3-5.8-7.6-5.8c-3.5,0-5.9,0.9-9,2.5l-4.2-8.4c5.2-2.8,11.1-4.3,17-4.4
		C76.5,70.2,84.3,76.2,84.3,86.4z M71,97.3v-3.5c-1.9-0.8-3.9-1.2-5.9-1.2c-2.8,0-4.8,1.8-4.8,4.3s1.9,4,4.5,4
		C68.1,101,70.7,99.5,71,97.3z"/>
	<path class="st0" d="M129.5,84.6v23.7h-13.3V87.9c0-3.6-2.3-6.1-5.6-6.1c-3.1,0-5.3,2.4-5.3,5.7v20.9H91.4V71.1h13.9v3.8
		c2.6-3.1,6.5-4.8,10.5-4.6C123.8,70.2,129.5,76.2,129.5,84.6z"/>
	<path class="st0" d="M156.8,58.9h14v19.5l16.6-19.5H204l-18.3,20.7l19.7,28.8h-16.7l-12.7-18.7l-5.1,5.6v13.1h-14L156.8,58.9z"/>
	<path class="st0" d="M243.6,86.4v22h-13.3v-2.7c-2.6,2.3-6.1,3.6-9.6,3.5c-8,0-14.3-4.9-14.3-11.9S213.4,85,222.4,85
		c2.7,0.1,5.4,0.6,7.9,1.7v-0.2c0-3.7-3.3-5.8-7.6-5.8c-3.5,0-5.9,0.9-9,2.5l-4.2-8.4c5.2-2.8,11.1-4.3,17-4.4
		C235.8,70.2,243.6,76.2,243.6,86.4L243.6,86.4z M230.3,97.3v-3.5c-1.9-0.8-3.9-1.2-5.9-1.2c-2.8,0-4.8,1.8-4.8,4.3s1.9,4,4.5,4
		C227.4,101,230,99.5,230.3,97.3L230.3,97.3L230.3,97.3z"/>
	<path class="st0" d="M250.8,59.9c0-3.9,3.3-7.1,7.2-7.1c3.9,0,7.1,3.3,7.1,7.2c0,3.9-3.2,7-7,7.1C254,67.1,250.8,63.9,250.8,59.9
		L250.8,59.9L250.8,59.9z M250.9,71.1h13.9v37.2h-13.9L250.9,71.1L250.9,71.1z"/>
</g>
</svg>
