<?xml version="1.0" encoding="UTF-8"?><svg id="a" xmlns="http://www.w3.org/2000/svg" viewBox="0 0 1080 162"><defs><style>.b{fill:#fff;}</style></defs><path class="b" d="M1053.42,89.46c-1.97,.68,.23,6.46-4.23,15.01-2.62,5.07-4.65,5.52-9.07,11.3-4.42,5.78-9.2,12.01-9.69,20.37-.54,7.31,2.12,14.5,7.3,19.7,3.81,3.5,8.67,5.64,13.82,6.1,9.74,.58,19.09-3.87,24.8-11.79,14.27-21.21-17.4-62.57-22.92-60.7Z"/><g><path class="b" d="M34.19,80.68c-3.17,.3-6.25-.81-9.26-3.32l-9.87-8.26-4.49,5.36-6.44-5.39,4.49-5.36L0,56.48l6.73-8.04,8.63,7.23,7.85-9.39,6.44,5.39-7.86,9.39,9.6,8.04c.86,.72,1.7,1.06,2.52,1.02,.82-.04,1.58-.47,2.27-1.29,1.26-1.5,1.05-3.14-.63-4.91l7.34-6.26c2.4,2.8,3.63,5.73,3.68,8.78,.06,3.06-1.14,6.05-3.6,8.98-2.69,3.22-5.62,4.98-8.79,5.27Z"/><path class="b" d="M53.08,62.66L22.8,24.19l8.24-6.49,12.98,16.49c-.32-2.3-.05-4.4,.82-6.3,.87-1.9,2.13-3.51,3.78-4.8,3.11-2.45,6.28-3.43,9.49-2.93,3.21,.5,6.07,2.34,8.58,5.53l12.76,16.21-8.24,6.49-11.47-14.56c-1.21-1.54-2.6-2.46-4.18-2.76-1.57-.3-3.09,.12-4.56,1.28-1.54,1.21-2.33,2.79-2.38,4.72-.05,1.94,.72,3.91,2.31,5.93l10.38,13.19-8.24,6.49Z"/><path class="b" d="M98.63,21.52c.56-1.13,.78-2.42,.64-3.86l9.51-.77c.33,3.21-.32,6.21-1.95,8.98-1.63,2.77-4.18,5.01-7.66,6.71-3.06,1.5-6.12,2.18-9.2,2.05s-5.89-1.03-8.45-2.71c-2.56-1.68-4.6-4.07-6.12-7.17-1.37-2.81-2-5.69-1.87-8.66,.13-2.97,1.01-5.7,2.65-8.19,1.64-2.49,3.92-4.45,6.85-5.89,4.35-2.13,8.41-2.57,12.16-1.32,3.75,1.25,6.64,3.95,8.68,8.09,.6,1.21,1.09,2.55,1.5,4.02l-19.47,9.54c.95,1.51,2.28,2.46,4.01,2.86,1.73,.4,3.53,.14,5.42-.78,1.63-.8,2.73-1.77,3.29-2.9Zm-14.92-9.47c-.74,1.19-1.03,2.53-.88,4.01l10.8-5.29c-.55-1.13-1.46-1.84-2.72-2.13-1.26-.29-2.69-.05-4.28,.73-1.22,.6-2.19,1.49-2.93,2.68Z"/></g><g><path class="b" d="M107.26,126.75c4.61,4.33,10.12,6.5,16.51,6.5,6.96,0,12.35-1.99,16.19-5.96,3.83-3.97,6.18-9.09,7.03-15.34l29.82,10.22c-7.1,26.56-24.78,39.83-53.03,39.83-10.94,0-20.59-2.2-28.97-6.6-8.38-4.4-14.88-10.65-19.49-18.74-4.62-8.09-6.92-17.39-6.92-27.9s2.41-19.06,7.24-26.95c4.83-7.88,11.32-14.02,19.49-18.42,8.16-4.4,17-6.6,26.52-6.6,12.92,0,23.85,3.12,32.8,9.37,8.95,6.25,14.7,15.12,17.25,26.63l-28.11,9.59c-.99-5.25-3.37-9.37-7.13-12.35-3.76-2.98-8.34-4.47-13.74-4.47-5.82,0-11.01,2.06-15.55,6.18-4.55,4.12-6.82,9.87-6.82,17.25s2.31,13.46,6.92,17.79Z"/><path class="b" d="M206.29,158.06c-5.04-2.63-9.05-6.32-12.03-11.08-2.98-4.76-4.47-10.33-4.47-16.72,0-10.51,3.51-18.49,10.54-23.96,7.03-5.46,16.86-8.2,29.5-8.2,5.54,0,11.08,.64,16.61,1.92l7.24,1.7v-5.11c0-4.83-1.53-8.59-4.58-11.29-3.06-2.7-7.42-4.05-13.1-4.05s-9.73,1.25-12.99,3.73c-3.27,2.49-5.4,5.79-6.39,9.9l-27.05-7.24c3.12-9.51,8.66-17.04,16.61-22.58,7.95-5.54,17.96-8.31,30.03-8.31,16.19,0,28.29,3.55,36.31,10.65,8.02,7.1,12.03,17.4,12.03,30.89v61.56h-28.75v-13.85c-4.26,5.83-8.88,9.94-13.84,12.35-4.97,2.41-11.36,3.62-19.17,3.62-5.96,0-11.47-1.31-16.51-3.94Zm42.28-22.9c3.41-2.84,5.11-6.67,5.11-11.5v-.64l-4.05-1.7c-4.69-1.99-9.58-2.98-14.7-2.98-4.12,0-7.35,.93-9.69,2.77-2.34,1.85-3.51,4.47-3.51,7.88s1.2,5.83,3.62,7.67c2.41,1.85,5.82,2.77,10.22,2.77,5.25,0,9.58-1.42,12.99-4.26Z"/><path class="b" d="M309.27,159.87V58.91h31.95v11.93c3.12-4.54,7.35-8.02,12.67-10.44,5.32-2.41,11.04-3.62,17.15-3.62,11.5,0,20.59,3.27,27.26,9.8,6.67,6.53,10.01,15.62,10.01,27.27v66.03h-31.95v-58.58c0-5.82-1.53-10.47-4.58-13.95-3.05-3.48-7.21-5.22-12.46-5.22-5.54,0-9.94,1.92-13.2,5.75-3.27,3.83-4.9,9.37-4.9,16.61v55.38h-31.95Z"/><path class="b" d="M451.97,155.72c-7.53-4.19-13.49-10.22-17.89-18.1-4.4-7.88-6.6-17.15-6.6-27.8s2.2-19.99,6.6-28.01c4.4-8.02,10.33-14.2,17.78-18.53,7.45-4.33,15.65-6.5,24.6-6.5,6.39,0,12.32,1.35,17.78,4.05,5.46,2.7,9.83,6.25,13.1,10.65V10.77h31.95V159.87h-30.88v-11.72c-3.27,4.4-7.56,7.81-12.89,10.22s-11.32,3.62-18,3.62c-9.51,0-18.03-2.1-25.56-6.28Zm31.95-20.34c6.82,0,12.6-2.24,17.36-6.71,4.76-4.47,7.14-10.76,7.14-18.85,0-8.52-2.34-15.05-7.03-19.6-4.69-4.54-10.51-6.82-17.47-6.82s-12.78,2.27-17.46,6.82c-4.69,4.55-7.03,11.08-7.03,19.6s2.38,14.38,7.13,18.85c4.76,4.47,10.54,6.71,17.36,6.71Z"/><path class="b" d="M564,10.77h31.95V159.87h-31.95V10.77Z"/><path class="b" d="M682.95,131.01c3.05-2.34,5.36-5.57,6.92-9.69l27.05,10.65c-3.41,9.23-9.19,16.54-17.36,21.94-8.17,5.4-18.14,8.09-29.92,8.09-10.37,0-19.67-2.24-27.9-6.71-8.24-4.47-14.73-10.72-19.49-18.74-4.76-8.02-7.13-17.29-7.13-27.8,0-9.51,2.16-18.25,6.5-26.2,4.33-7.95,10.4-14.24,18.21-18.85,7.81-4.61,16.68-6.92,26.62-6.92,14.77,0,26.44,4.23,35.04,12.67,8.59,8.45,12.89,19.7,12.89,33.76,0,4.12-.43,8.45-1.28,12.99h-66.03c.57,5.4,2.95,9.8,7.13,13.21,4.19,3.41,9.48,5.11,15.87,5.11,5.54,0,9.83-1.17,12.89-3.51Zm-28.11-45.9c-3.62,2.27-6.21,5.54-7.77,9.8h36.63c0-3.83-1.53-6.99-4.58-9.48-3.06-2.48-7.28-3.73-12.67-3.73-4.12,0-7.99,1.14-11.61,3.41Z"/><path class="b" d="M817.13,126.75c4.61,4.33,10.12,6.5,16.51,6.5,6.96,0,12.35-1.99,16.19-5.96,3.83-3.97,6.18-9.09,7.03-15.34l29.82,10.22c-7.1,26.56-24.78,39.83-53.03,39.83-10.94,0-20.59-2.2-28.97-6.6-8.38-4.4-14.88-10.65-19.49-18.74-4.62-8.09-6.92-17.39-6.92-27.9s2.41-19.06,7.24-26.95c4.82-7.88,11.32-14.02,19.49-18.42,8.16-4.4,17-6.6,26.52-6.6,12.92,0,23.85,3.12,32.8,9.37,8.94,6.25,14.7,15.12,17.25,26.63l-28.11,9.59c-.99-5.25-3.37-9.37-7.13-12.35-3.76-2.98-8.34-4.47-13.74-4.47-5.82,0-11.01,2.06-15.55,6.18-4.55,4.12-6.82,9.87-6.82,17.25s2.31,13.46,6.92,17.79Z"/><path class="b" d="M952.26,162c-10.22,0-19.42-2.24-27.58-6.71-8.17-4.47-14.56-10.72-19.17-18.74-4.62-8.02-6.92-17.07-6.92-27.16s2.31-19.13,6.92-27.16c4.61-8.02,11-14.27,19.17-18.74,8.16-4.47,17.36-6.71,27.58-6.71s19.42,2.24,27.58,6.71c8.16,4.47,14.55,10.72,19.17,18.74,4.61,8.02,6.92,17.08,6.92,27.16s-2.31,19.14-6.92,27.16c-4.61,8.02-11.01,14.27-19.17,18.74-8.17,4.47-17.36,6.71-27.58,6.71Zm0-28.76c6.53,0,11.96-2.16,16.29-6.5,4.33-4.33,6.5-10.12,6.5-17.36s-2.17-13.03-6.5-17.36c-4.33-4.33-9.76-6.5-16.29-6.5s-11.96,2.17-16.29,6.5c-4.33,4.33-6.5,10.12-6.5,17.36s2.16,13.03,6.5,17.36c4.33,4.33,9.76,6.5,16.29,6.5Z"/></g></svg>